<?xml version="1.0" encoding="UTF-8" standalone="no"?>
<svg
   xmlns:dc="http://purl.org/dc/elements/1.1/"
   xmlns:cc="http://creativecommons.org/ns#"
   xmlns:rdf="http://www.w3.org/1999/02/22-rdf-syntax-ns#"
   xmlns:svg="http://www.w3.org/2000/svg"
   xmlns="http://www.w3.org/2000/svg"
   xmlns:sodipodi="http://sodipodi.sourceforge.net/DTD/sodipodi-0.dtd"
   xmlns:inkscape="http://www.inkscape.org/namespaces/inkscape"
   width="53.164825mm"
   height="80.205772mm"
   viewBox="0 0 53.164825 80.205772"
   version="1.1"
   id="svg7346"
   inkscape:version="1.0.2 (e86c870879, 2021-01-15)"
   sodipodi:docname="charbox.svg">
  <defs
     id="defs7340">
    <marker
       style="overflow:visible"
       id="marker8206"
       refX="0"
       refY="0"
       orient="auto"
       inkscape:stockid="Arrow1Lend"
       inkscape:isstock="true">
      <path
         transform="matrix(-0.8,0,0,-0.8,-10,0)"
         style="fill:#000000;fill-opacity:1;fill-rule:evenodd;stroke:#000000;stroke-width:1pt;stroke-opacity:1"
         d="M 0,0 5,-5 -12.5,0 5,5 Z"
         id="path8204" />
    </marker>
    <marker
       style="overflow:visible"
       id="marker7085"
       refX="0"
       refY="0"
       orient="auto"
       inkscape:stockid="Arrow1Lend"
       inkscape:isstock="true"
       inkscape:collect="always">
      <path
         transform="matrix(-0.8,0,0,-0.8,-10,0)"
         style="fill:#000000;fill-opacity:1;fill-rule:evenodd;stroke:#000000;stroke-width:1pt;stroke-opacity:1"
         d="M 0,0 5,-5 -12.5,0 5,5 Z"
         id="path7083" />
    </marker>
    <marker
       style="overflow:visible"
       id="marker7121"
       refX="0"
       refY="0"
       orient="auto"
       inkscape:stockid="Arrow1Lend"
       inkscape:isstock="true">
      <path
         transform="matrix(-0.8,0,0,-0.8,-10,0)"
         style="fill:#000000;fill-opacity:1;fill-rule:evenodd;stroke:#000000;stroke-width:1pt;stroke-opacity:1"
         d="M 0,0 5,-5 -12.5,0 5,5 Z"
         id="path7119" />
    </marker>
    <marker
       style="overflow:visible"
       id="marker7215"
       refX="0"
       refY="0"
       orient="auto"
       inkscape:stockid="Arrow1Lend"
       inkscape:isstock="true">
      <path
         transform="matrix(-0.8,0,0,-0.8,-10,0)"
         style="fill:#000000;fill-opacity:1;fill-rule:evenodd;stroke:#000000;stroke-width:1pt;stroke-opacity:1"
         d="M 0,0 5,-5 -12.5,0 5,5 Z"
         id="path7213" />
    </marker>
  </defs>
  <sodipodi:namedview
     id="base"
     pagecolor="#ffffff"
     bordercolor="#666666"
     borderopacity="1.0"
     inkscape:pageopacity="0.0"
     inkscape:pageshadow="2"
     inkscape:zoom="1.979899"
     inkscape:cx="160.94132"
     inkscape:cy="203.25102"
     inkscape:document-units="mm"
     inkscape:current-layer="layer1"
     inkscape:document-rotation="0"
     showgrid="false"
     inkscape:window-width="1920"
     inkscape:window-height="1016"
     inkscape:window-x="0"
     inkscape:window-y="27"
     inkscape:window-maximized="1"
     fit-margin-top="0"
     fit-margin-left="0"
     fit-margin-right="0"
     fit-margin-bottom="0" />
  <metadata
     id="metadata7343">
    <rdf:RDF>
      <cc:Work
         rdf:about="">
        <dc:format>image/svg+xml</dc:format>
        <dc:type
           rdf:resource="http://purl.org/dc/dcmitype/StillImage" />
        <dc:title></dc:title>
      </cc:Work>
    </rdf:RDF>
  </metadata>
  <g
     inkscape:label="Katman 1"
     inkscape:groupmode="layer"
     id="layer1"
     transform="translate(-40.710409,-100.10885)">
    <path
       id="rect6677"
       style="fill:#e6e6e6;fill-opacity:1;stroke:#000000;stroke-width:0.137632;stroke-miterlimit:4;stroke-dasharray:none"
       d="m 40.795037,100.17767 h 31.880742 v 80.06814 H 40.795037 Z" />
    <path
       id="rect6683"
       style="fill:none;fill-opacity:1;stroke:#000000;stroke-width:0.156879;stroke-miterlimit:4;stroke-dasharray:0.941273, 0.941273;stroke-dashoffset:0"
       d="m 40.788848,128.76103 h 31.84312 v 26.45146 h -31.84312 z" />
    <path
       d="m 59.548199,153.94884 -0.09422,-3.1803 q -1.93173,1.90817 -3.934136,2.75627 -1.978844,0.84806 -4.169709,0.84806 -2.025962,0 -3.462982,-0.51827 -1.437018,-0.51826 -2.379327,-1.41345 -0.91875,-0.91876 -1.366346,-2.14376 -0.424039,-1.22499 -0.424039,-2.66202 0,-3.55721 2.638461,-5.55961 2.662019,-2.02595 7.844712,-2.02595 h 4.899999 v -2.07309 q 0,-2.09664 -1.342787,-3.34519 -1.342788,-1.27212 -4.099037,-1.27212 -2.002404,0 -3.957694,0.4476 -1.93173,0.44759 -4.004807,1.27211 v -3.69856 q 0.777404,-0.28269 1.719711,-0.54183 0.965864,-0.28269 2.025961,-0.4947 1.060097,-0.21202 2.214425,-0.32982 1.154325,-0.14134 2.332209,-0.14134 2.143752,0 3.863464,0.47116 1.71971,0.47115 2.897596,1.43701 1.201441,0.96587 1.837498,2.42644 0.636058,1.46058 0.636058,3.43943 v 16.30193 z m -0.447596,-10.76588 h -5.20625 q -1.53125,0 -2.638461,0.30625 -1.107211,0.30626 -1.813942,0.87164 -0.70673,0.56539 -1.060096,1.36635 -0.329808,0.7774 -0.329808,1.76683 0,0.68317 0.212018,1.31923 0.212021,0.6125 0.683176,1.1072 0.471153,0.47116 1.224999,0.75385 0.753845,0.2827 1.8375,0.2827 1.413461,0 3.227404,-0.84808 1.837499,-0.87164 3.86346,-2.73269 z"
       style="font-size:50.7725px;line-height:1.25;font-family:Consolas;-inkscape-font-specification:Consolas;fill:#008000;stroke-width:4.02051"
       id="path8326" />
    <path
       style="fill:none;stroke:#000000;stroke-width:0.192972;stroke-linecap:butt;stroke-linejoin:miter;stroke-miterlimit:4;stroke-dasharray:1.54378, 1.54378;stroke-dashoffset:0;stroke-opacity:1;marker-end:url(#marker7085)"
       d="m 84.441692,100.48757 v 35.03179"
       id="path6685" />
    <g
       aria-label="line-height"
       id="text7167"
       style="font-size:3.175px;line-height:1.25;font-family:Consolas;-inkscape-font-specification:Consolas;stroke-width:0.264583"
       transform="translate(2.6458334,-1.2606871)">
      <path
         d="m 73.049113,140.81163 h -0.460437 v -0.22169 h 0.733289 v 1.96577 h 0.463538 v 0.22479 h -1.247986 v -0.22479 h 0.511596 z"
         style="stroke-width:0.264583"
         id="path8341" />
      <path
         d="m 74.794743,141.44725 h -0.460437 v -0.22324 h 0.733289 v 1.3317 h 0.463538 v 0.22479 h -1.247986 v -0.22479 h 0.511596 z m 0.09457,-0.87592 q 0.04496,0 0.08372,0.0171 0.03876,0.0155 0.06666,0.045 0.02946,0.0294 0.04496,0.0682 0.01705,0.0372 0.01705,0.0822 0,0.0434 -0.01705,0.0822 -0.0155,0.0388 -0.04496,0.0682 -0.02791,0.0295 -0.06666,0.0465 -0.03876,0.0155 -0.08372,0.0155 -0.04496,0 -0.08372,-0.0155 -0.03876,-0.0171 -0.06821,-0.0465 -0.02791,-0.0294 -0.04496,-0.0682 -0.0155,-0.0388 -0.0155,-0.0822 0,-0.045 0.0155,-0.0822 0.01705,-0.0388 0.04496,-0.0682 0.02946,-0.0295 0.06821,-0.045 0.03876,-0.0171 0.08372,-0.0171 z"
         style="stroke-width:0.264583"
         id="path8343" />
      <path
         d="m 76.010173,141.22401 h 0.240295 l 0.01085,0.25115 q 0.06821,-0.0806 0.131774,-0.13333 0.06356,-0.0543 0.124024,-0.0868 0.06201,-0.0325 0.125574,-0.045 0.06356,-0.014 0.131775,-0.014 0.240295,0 0.362768,0.14263 0.124023,0.14108 0.124023,0.42633 v 1.01544 h -0.26975 v -0.99374 q 0,-0.18293 -0.06821,-0.26975 -0.06821,-0.0884 -0.203089,-0.0884 -0.04961,0 -0.09767,0.0155 -0.04651,0.0139 -0.09767,0.0512 -0.05116,0.0357 -0.111621,0.0977 -0.05891,0.062 -0.133325,0.15503 v 1.03249 H 76.01017 Z"
         style="stroke-width:0.264583"
         id="path8345" />
      <path
         d="m 79.070452,141.92009 q 0,0.0574 -0.0016,0.0961 -0.0015,0.0388 -0.0047,0.0729 h -1.092956 q 0,0.23875 0.133325,0.36742 0.133325,0.12713 0.384473,0.12713 0.06821,0 0.136425,-0.005 0.06821,-0.006 0.131775,-0.0155 0.06356,-0.009 0.120923,-0.0202 0.05891,-0.0124 0.108521,-0.0264 v 0.22169 q -0.110071,0.031 -0.249597,0.0496 -0.137977,0.0202 -0.286805,0.0202 -0.199987,0 -0.344165,-0.0543 -0.144177,-0.0543 -0.237195,-0.15658 -0.09147,-0.10387 -0.136425,-0.2527 -0.04341,-0.15038 -0.04341,-0.33951 0,-0.16434 0.04651,-0.31006 0.04806,-0.14728 0.137976,-0.25735 0.09147,-0.11162 0.223243,-0.17673 0.131774,-0.0651 0.299206,-0.0651 0.162781,0 0.288355,0.0512 0.125573,0.0512 0.210839,0.14573 0.08682,0.093 0.130225,0.22789 0.04496,0.13333 0.04496,0.29921 z m -0.280604,-0.0388 q 0.0047,-0.10387 -0.02015,-0.18913 -0.02481,-0.0868 -0.07752,-0.14883 -0.05116,-0.062 -0.128674,-0.0961 -0.07752,-0.0357 -0.179834,-0.0357 -0.08837,0 -0.161231,0.0341 -0.07286,0.0341 -0.125573,0.0961 -0.05271,0.062 -0.08527,0.14883 -0.03256,0.0868 -0.04031,0.19068 z"
         style="stroke-width:0.264583"
         id="path8347" />
      <path
         d="m 80.589739,142.06272 h -0.927076 v -0.25425 h 0.927076 z"
         style="stroke-width:0.264583"
         id="path8349" />
      <path
         d="m 82.498149,142.7805 h -0.269751 v -0.99374 q 0,-0.17983 -0.06821,-0.2682 -0.06666,-0.0899 -0.192236,-0.0899 -0.05426,0 -0.102319,0.0155 -0.04651,0.0139 -0.09767,0.0512 -0.05116,0.0357 -0.111621,0.0977 -0.06046,0.062 -0.139526,0.15503 v 1.03249 h -0.269751 v -2.19056 h 0.269751 v 0.63407 l -0.0093,0.24494 q 0.06356,-0.076 0.124023,-0.12712 0.06201,-0.0527 0.122473,-0.0853 0.06201,-0.0326 0.125574,-0.0465 0.06356,-0.014 0.131775,-0.014 0.232544,0 0.359668,0.14263 0.127124,0.14108 0.127124,0.42633 z"
         style="stroke-width:0.264583"
         id="path8351" />
      <path
         d="m 84.307341,141.92009 q 0,0.0574 -0.0015,0.0961 -0.0015,0.0388 -0.0047,0.0729 h -1.092956 q 0,0.23875 0.133325,0.36742 0.133325,0.12713 0.384473,0.12713 0.06821,0 0.136425,-0.005 0.06821,-0.006 0.131775,-0.0155 0.06356,-0.009 0.120923,-0.0202 0.05891,-0.0124 0.108521,-0.0264 v 0.22169 q -0.110071,0.031 -0.249598,0.0496 -0.137976,0.0202 -0.286804,0.0202 -0.199988,0 -0.344165,-0.0543 -0.144177,-0.0543 -0.237195,-0.15658 -0.09147,-0.10387 -0.136425,-0.2527 -0.04341,-0.15038 -0.04341,-0.33951 0,-0.16434 0.04651,-0.31006 0.04806,-0.14728 0.137976,-0.25735 0.09147,-0.11162 0.223242,-0.17673 0.131775,-0.0651 0.299207,-0.0651 0.162781,0 0.288354,0.0512 0.125574,0.0512 0.21084,0.14573 0.08682,0.093 0.130225,0.22789 0.04496,0.13333 0.04496,0.29921 z m -0.280603,-0.0388 q 0.0047,-0.10387 -0.02015,-0.18913 -0.02481,-0.0868 -0.07752,-0.14883 -0.05116,-0.062 -0.128674,-0.0961 -0.07752,-0.0357 -0.179834,-0.0357 -0.08837,0 -0.161231,0.0341 -0.07286,0.0341 -0.125574,0.0961 -0.05271,0.062 -0.08527,0.14883 -0.03256,0.0868 -0.04031,0.19068 z"
         style="stroke-width:0.264583"
         id="path8353" />
      <path
         d="m 85.268522,141.44725 h -0.460437 v -0.22324 h 0.733289 v 1.3317 h 0.463538 v 0.22479 h -1.247986 v -0.22479 h 0.511596 z m 0.09457,-0.87592 q 0.04496,0 0.08372,0.0171 0.03876,0.0155 0.06666,0.045 0.02945,0.0294 0.04496,0.0682 0.01705,0.0372 0.01705,0.0822 0,0.0434 -0.01705,0.0822 -0.0155,0.0388 -0.04496,0.0682 -0.02791,0.0295 -0.06666,0.0465 -0.03876,0.0155 -0.08372,0.0155 -0.04496,0 -0.08372,-0.0155 -0.03876,-0.0171 -0.06821,-0.0465 -0.02791,-0.0294 -0.04496,-0.0682 -0.0155,-0.0388 -0.0155,-0.0822 0,-0.045 0.0155,-0.0822 0.01705,-0.0388 0.04496,-0.0682 0.02945,-0.0295 0.06821,-0.045 0.03876,-0.0171 0.08372,-0.0171 z"
         style="stroke-width:0.264583"
         id="path8355" />
      <path
         d="m 87.604814,141.44415 q 0.04341,0.0543 0.06666,0.12712 0.02481,0.0713 0.02481,0.15503 0,0.12093 -0.04496,0.2217 -0.04341,0.0992 -0.124023,0.17053 -0.08062,0.0713 -0.193787,0.11162 -0.111621,0.0388 -0.246497,0.0388 -0.09767,0 -0.182934,-0.0202 -0.08527,-0.0217 -0.134876,-0.0527 -0.02945,0.0434 -0.04961,0.0822 -0.02015,0.0387 -0.02015,0.0868 0,0.0589 0.05581,0.0977 0.05736,0.0388 0.150378,0.0419 l 0.409278,0.0155 q 0.116272,0.003 0.21394,0.0295 0.09922,0.0264 0.168982,0.076 0.07131,0.0496 0.110071,0.12248 0.04031,0.0729 0.04031,0.16898 0,0.10387 -0.04496,0.19689 -0.04496,0.093 -0.139527,0.16278 -0.09302,0.0713 -0.237194,0.11317 -0.144178,0.0419 -0.342615,0.0419 -0.189136,0 -0.322461,-0.031 -0.131775,-0.0295 -0.217041,-0.0837 -0.08527,-0.0527 -0.124023,-0.12712 -0.03876,-0.0729 -0.03876,-0.16123 0,-0.11317 0.05271,-0.19844 0.05271,-0.0853 0.162781,-0.16433 -0.04031,-0.0186 -0.06976,-0.0465 -0.02946,-0.0279 -0.04806,-0.0605 -0.0186,-0.0341 -0.02791,-0.0713 -0.0093,-0.0372 -0.0093,-0.0729 0,-0.10077 0.04651,-0.18448 0.04806,-0.0837 0.113172,-0.15813 -0.02946,-0.0357 -0.05271,-0.0698 -0.0217,-0.0341 -0.03876,-0.0729 -0.0155,-0.0403 -0.0248,-0.0853 -0.0078,-0.0465 -0.0078,-0.10542 0,-0.12093 0.04341,-0.22015 0.04496,-0.10077 0.124023,-0.17208 0.08061,-0.0713 0.192236,-0.11007 0.113172,-0.0403 0.249597,-0.0403 0.05736,0 0.110071,0.008 0.05271,0.008 0.09302,0.0202 h 0.564306 v 0.22014 z m -0.936377,1.56114 q 0,0.11008 0.114722,0.15968 0.114722,0.0512 0.31936,0.0512 0.128675,0 0.215491,-0.0232 0.08837,-0.0232 0.141077,-0.062 0.05426,-0.0372 0.07751,-0.0868 0.02325,-0.0481 0.02325,-0.0992 0,-0.0946 -0.07751,-0.13952 -0.07751,-0.045 -0.237195,-0.0527 l -0.406176,-0.014 q -0.05116,0.0341 -0.08527,0.0667 -0.03256,0.0326 -0.05116,0.0651 -0.0186,0.0341 -0.02636,0.0667 -0.0078,0.0341 -0.0078,0.0682 z m 0.08217,-1.27279 q 0,0.0744 0.02481,0.13643 0.0248,0.062 0.06976,0.10542 0.04496,0.0434 0.10542,0.0682 0.06201,0.0233 0.136425,0.0233 0.08062,0 0.142627,-0.0264 0.06356,-0.0279 0.10542,-0.0744 0.04341,-0.0465 0.06511,-0.10697 0.02325,-0.0605 0.02325,-0.12558 0,-0.0744 -0.02481,-0.13642 -0.0248,-0.062 -0.06976,-0.10542 -0.04496,-0.0434 -0.10697,-0.0667 -0.06046,-0.0248 -0.134876,-0.0248 -0.08062,0 -0.144177,0.0279 -0.06201,0.0279 -0.10542,0.0744 -0.04186,0.045 -0.06511,0.10542 -0.0217,0.0605 -0.0217,0.12557 z"
         style="stroke-width:0.264583"
         id="path8357" />
      <path
         d="m 89.480669,142.7805 h -0.269751 v -0.99374 q 0,-0.17983 -0.06821,-0.2682 -0.06666,-0.0899 -0.192236,-0.0899 -0.05426,0 -0.102319,0.0155 -0.04651,0.0139 -0.09767,0.0512 -0.05116,0.0357 -0.111621,0.0977 -0.06046,0.062 -0.139526,0.15503 v 1.03249 h -0.269751 v -2.19056 h 0.269751 v 0.63407 l -0.0093,0.24494 q 0.06356,-0.076 0.124023,-0.12712 0.06201,-0.0527 0.122474,-0.0853 0.06201,-0.0326 0.125573,-0.0465 0.06356,-0.014 0.131775,-0.014 0.232544,0 0.359668,0.14263 0.127124,0.14108 0.127124,0.42633 z"
         style="stroke-width:0.264583"
         id="path8359" />
      <path
         d="m 91.229399,142.7588 q -0.09147,0.0232 -0.189136,0.0325 -0.09767,0.0109 -0.198437,0.0109 -0.293006,0 -0.437183,-0.13178 -0.144177,-0.13332 -0.144177,-0.40773 v -0.81235 H 89.824834 V 141.224 h 0.435632 v -0.42788 l 0.269751,-0.0698 v 0.49765 h 0.699182 v 0.22634 h -0.699182 v 0.79065 q 0,0.16743 0.08837,0.25115 0.08992,0.0822 0.263549,0.0822 0.07442,0 0.162781,-0.0109 0.08837,-0.0124 0.184485,-0.0372 z"
         style="stroke-width:0.264583"
         id="path8361" />
    </g>
    <g
       aria-label="width"
       id="text8064"
       style="font-size:3.175px;line-height:1.25;font-family:Consolas;-inkscape-font-specification:Consolas;stroke-width:0.264583"
       transform="translate(2.6458334,-0.52916667)">
      <path
         d="m 51.306168,124.80608 -0.226343,1.55649 h -0.327112 l -0.224792,-0.65112 -0.04496,-0.15813 -0.05116,0.16743 -0.21549,0.64182 h -0.31781 l -0.224793,-1.55649 h 0.26355 l 0.130225,1.0573 0.0279,0.23564 0.06666,-0.20619 0.226343,-0.69918 h 0.193787 l 0.243396,0.68988 0.06976,0.20619 0.02325,-0.21859 0.120923,-1.06505 z"
         style="stroke-width:0.264583"
         id="path8376" />
      <path
         d="m 52.140225,125.02932 h -0.460437 v -0.22324 h 0.733289 v 1.3317 h 0.463537 v 0.22479 h -1.247985 v -0.22479 h 0.511596 z m 0.09457,-0.87592 q 0.04496,0 0.08372,0.0171 0.03876,0.0155 0.06666,0.045 0.02946,0.0295 0.04496,0.0682 0.01705,0.0372 0.01705,0.0822 0,0.0434 -0.01705,0.0822 -0.0155,0.0388 -0.04496,0.0682 -0.02791,0.0295 -0.06666,0.0465 -0.03876,0.0155 -0.08372,0.0155 -0.04496,0 -0.08372,-0.0155 -0.03876,-0.017 -0.06821,-0.0465 -0.02791,-0.0294 -0.04496,-0.0682 -0.0155,-0.0388 -0.0155,-0.0822 0,-0.045 0.0155,-0.0822 0.01705,-0.0388 0.04496,-0.0682 0.02946,-0.0295 0.06821,-0.045 0.03876,-0.0171 0.08372,-0.0171 z"
         style="stroke-width:0.264583"
         id="path8378" />
      <path
         d="m 53.27659,125.61688 q 0,-0.19844 0.05426,-0.35192 0.05426,-0.15502 0.153479,-0.26044 0.100769,-0.10698 0.240296,-0.16124 0.141076,-0.0558 0.313159,-0.0558 0.07441,0 0.145727,0.009 0.07286,0.009 0.142627,0.0294 v -0.65422 h 0.271302 v 2.19056 h -0.241846 l -0.0093,-0.29455 q -0.113171,0.16433 -0.244946,0.24339 -0.131775,0.0791 -0.285254,0.0791 -0.133325,0 -0.235645,-0.0558 -0.100769,-0.0558 -0.168982,-0.15658 -0.06666,-0.10232 -0.100769,-0.24495 -0.03411,-0.14263 -0.03411,-0.31626 z m 0.275952,-0.017 q 0,0.28215 0.08217,0.42168 0.08372,0.13797 0.235644,0.13797 0.10232,0 0.215491,-0.0915 0.114722,-0.0915 0.240295,-0.27131 v -0.72243 q -0.06666,-0.031 -0.147277,-0.0465 -0.08062,-0.017 -0.159681,-0.017 -0.220141,0 -0.344165,0.14262 -0.122473,0.14263 -0.122473,0.44649 z"
         style="stroke-width:0.264583"
         id="path8380" />
      <path
         d="m 56.355472,126.34087 q -0.09147,0.0233 -0.189136,0.0326 -0.09767,0.0109 -0.198437,0.0109 -0.293006,0 -0.437183,-0.13178 -0.144177,-0.13332 -0.144177,-0.40773 v -0.81235 h -0.435632 v -0.22634 h 0.435632 v -0.42788 l 0.269751,-0.0698 v 0.49765 h 0.699182 v 0.22634 H 55.65629 v 0.79065 q 0,0.16743 0.08837,0.25115 0.08992,0.0822 0.263549,0.0822 0.07441,0 0.162781,-0.0109 0.08837,-0.0124 0.184485,-0.0372 z"
         style="stroke-width:0.264583"
         id="path8382" />
      <path
         d="M 58.098001,126.36257 H 57.82825 v -0.99374 q 0,-0.17983 -0.06821,-0.2682 -0.06666,-0.0899 -0.192236,-0.0899 -0.05426,0 -0.102319,0.0155 -0.04651,0.014 -0.09767,0.0512 -0.05116,0.0357 -0.111621,0.0977 -0.06046,0.062 -0.139526,0.15503 v 1.03249 h -0.269751 v -2.19056 h 0.269751 v 0.63407 l -0.0093,0.24494 q 0.06356,-0.076 0.124023,-0.12712 0.06201,-0.0527 0.122474,-0.0853 0.06201,-0.0326 0.125573,-0.0465 0.06356,-0.0139 0.131775,-0.0139 0.232544,0 0.359668,0.14263 0.127124,0.14108 0.127124,0.42633 z"
         style="stroke-width:0.264583"
         id="path8384" />
    </g>
    <path
       style="fill:none;stroke:#000000;stroke-width:0.193566;stroke-linecap:butt;stroke-linejoin:miter;stroke-miterlimit:4;stroke-dasharray:1.54852, 1.54852;stroke-dashoffset:0;stroke-opacity:1;marker-end:url(#marker8206)"
       d="M 84.441692,179.78857 V 144.54142"
       id="path8202" />
  </g>
</svg>
