<?xml version="1.0" encoding="UTF-8" standalone="no"?>
<svg
   xmlns:dc="http://purl.org/dc/elements/1.1/"
   xmlns:cc="http://creativecommons.org/ns#"
   xmlns:rdf="http://www.w3.org/1999/02/22-rdf-syntax-ns#"
   xmlns:svg="http://www.w3.org/2000/svg"
   xmlns="http://www.w3.org/2000/svg"
   xmlns:sodipodi="http://sodipodi.sourceforge.net/DTD/sodipodi-0.dtd"
   xmlns:inkscape="http://www.inkscape.org/namespaces/inkscape"
   width="128.64487mm"
   height="26.657284mm"
   viewBox="0 0 128.64487 26.657284"
   version="1.1"
   id="svg5760"
   inkscape:version="1.0.2 (e86c870879, 2021-01-15)"
   sodipodi:docname="code.svg">
  <defs
     id="defs5754" />
  <sodipodi:namedview
     id="base"
     pagecolor="#ffffff"
     bordercolor="#666666"
     borderopacity="1.0"
     inkscape:pageopacity="0.0"
     inkscape:pageshadow="2"
     inkscape:zoom="0.35"
     inkscape:cx="217.26814"
     inkscape:cy="184.66167"
     inkscape:document-units="mm"
     inkscape:current-layer="layer1"
     inkscape:document-rotation="0"
     showgrid="false"
     fit-margin-top="0"
     fit-margin-left="0"
     fit-margin-right="0"
     fit-margin-bottom="0"
     inkscape:window-width="1567"
     inkscape:window-height="752"
     inkscape:window-x="100"
     inkscape:window-y="114"
     inkscape:window-maximized="0" />
  <metadata
     id="metadata5757">
    <rdf:RDF>
      <cc:Work
         rdf:about="">
        <dc:format>image/svg+xml</dc:format>
        <dc:type
           rdf:resource="http://purl.org/dc/dcmitype/StillImage" />
        <dc:title></dc:title>
      </cc:Work>
    </rdf:RDF>
  </metadata>
  <g
     inkscape:label="Katman 1"
     inkscape:groupmode="layer"
     id="layer1"
     transform="translate(-48.347804,-99.308266)">
    <g
       aria-label="#include &quot;cache.h&quot;
#include &quot;config.h&quot;
···
static void std_output(struct grep_opt *opt, const void *buf, size_t size)
{
        fwrite(buf, size, 1, stdout);
}

"
       id="text1187"
       style="font-size:3.175px;line-height:1.25;font-family:Consolas;-inkscape-font-specification:Consolas;stroke-width:0.264583">
      <path
         d="m 49.877941,100.94848 h -0.345715 l -0.05736,0.56895 h -0.229443 l 0.05736,-0.56895 h -0.395324 l -0.05736,0.56895 h -0.229443 l 0.05736,-0.56895 h -0.330212 v -0.20154 h 0.350366 l 0.05581,-0.5426 h -0.327112 v -0.20154 h 0.347266 l 0.05271,-0.5116 h 0.226343 l -0.05116,0.5116 h 0.396875 l 0.05271,-0.5116 h 0.229443 l -0.05426,0.5116 h 0.333313 v 0.20154 H 49.60664 l -0.05426,0.5426 h 0.325561 z m -0.553454,-0.20154 0.05426,-0.5426 h -0.396875 l -0.05426,0.5426 z"
         style="fill:#782121"
         id="path6386" />
      <path
         d="m 50.805016,100.18418 h -0.460437 v -0.223241 h 0.733289 v 1.331701 h 0.463537 v 0.22479 H 50.29342 v -0.22479 h 0.511596 z m 0.09457,-0.875914 q 0.04496,0 0.08372,0.01705 0.03876,0.0155 0.06666,0.04496 0.02945,0.02946 0.04496,0.06821 0.01705,0.03721 0.01705,0.08217 0,0.04341 -0.01705,0.08217 -0.0155,0.03876 -0.04496,0.06821 -0.02791,0.02946 -0.06666,0.04651 -0.03876,0.0155 -0.08372,0.0155 -0.04496,0 -0.08372,-0.0155 -0.03876,-0.01705 -0.06821,-0.04651 -0.02791,-0.02946 -0.04496,-0.06821 -0.0155,-0.03876 -0.0155,-0.08217 0,-0.04496 0.0155,-0.08217 0.01705,-0.03876 0.04496,-0.06821 0.02945,-0.02945 0.06821,-0.04496 0.03876,-0.01705 0.08372,-0.01705 z"
         style="fill:#782121"
         id="path6388" />
      <path
         d="m 52.020446,99.960939 h 0.240295 l 0.01085,0.251151 q 0.06821,-0.0806 0.131774,-0.13333 0.06356,-0.0543 0.124024,-0.08682 0.06201,-0.03256 0.125574,-0.04496 0.06356,-0.01395 0.131774,-0.01395 0.240296,0 0.362769,0.14263 0.124023,0.14108 0.124023,0.42633 v 1.01544 h -0.269751 v -0.99373 q 0,-0.18294 -0.06821,-0.26976 -0.06821,-0.0884 -0.203089,-0.0884 -0.04961,0 -0.09767,0.0155 -0.04651,0.014 -0.09767,0.0512 -0.05116,0.0357 -0.111621,0.0977 -0.05891,0.062 -0.133325,0.15503 v 1.03249 h -0.269751 z"
         style="fill:#782121"
         id="path6390" />
      <path
         d="m 54.975305,101.46007 q -0.10542,0.0403 -0.217041,0.0589 -0.110071,0.0202 -0.227893,0.0202 -0.36897,0 -0.568958,-0.19999 -0.198438,-0.19999 -0.198438,-0.58446 0,-0.18449 0.05736,-0.33486 0.05736,-0.15038 0.161231,-0.25735 0.103869,-0.10697 0.248047,-0.164334 0.144177,-0.05891 0.31781,-0.05891 0.120923,0 0.226342,0.01705 0.10542,0.01705 0.201539,0.05581 v 0.25735 q -0.100769,-0.0527 -0.206189,-0.076 -0.10387,-0.0248 -0.215491,-0.0248 -0.10387,0 -0.196887,0.0403 -0.09147,0.0387 -0.161231,0.11317 -0.06976,0.0744 -0.110071,0.18138 -0.04031,0.10697 -0.04031,0.24185 0,0.28215 0.136426,0.42323 0.137976,0.13952 0.381372,0.13952 0.11007,0 0.21239,-0.0248 0.103869,-0.0248 0.199988,-0.0744 z"
         style="fill:#782121"
         id="path6392" />
      <path
         d="m 56.041906,99.548561 h -0.460437 v -0.221692 h 0.733289 v 1.965771 h 0.463537 v 0.22479 h -1.247986 v -0.22479 h 0.511597 z"
         style="fill:#782121"
         id="path6394" />
      <path
         d="m 58.508422,101.51743 h -0.241846 l -0.0093,-0.25114 q -0.06976,0.0806 -0.133326,0.13487 -0.06201,0.0527 -0.124023,0.0853 -0.06201,0.0326 -0.125574,0.045 -0.06201,0.0139 -0.131775,0.0139 -0.240295,0 -0.362768,-0.14108 -0.122473,-0.14107 -0.122473,-0.42633 v -1.016991 h 0.269751 v 0.995291 q 0,0.35811 0.269751,0.35811 0.04961,0 0.09612,-0.014 0.04806,-0.0155 0.09922,-0.0512 0.05271,-0.0372 0.111621,-0.0992 0.06046,-0.062 0.134875,-0.15658 v -1.032491 h 0.269751 z"
         style="fill:#782121"
         id="path6396" />
      <path
         d="m 58.923901,100.77174 q 0,-0.19844 0.05426,-0.35191 0.05426,-0.15503 0.153479,-0.26045 0.100769,-0.10697 0.240296,-0.161234 0.141076,-0.05581 0.313159,-0.05581 0.07441,0 0.145727,0.0093 0.07286,0.0093 0.142627,0.02946 v -0.654224 h 0.271302 v 2.190558 h -0.241846 l -0.0093,-0.29455 q -0.113171,0.16433 -0.244946,0.24339 -0.131775,0.0791 -0.285254,0.0791 -0.133325,0 -0.235645,-0.0558 -0.100769,-0.0558 -0.168982,-0.15658 -0.06666,-0.10232 -0.100769,-0.24495 -0.03411,-0.14262 -0.03411,-0.31626 z m 0.275952,-0.017 q 0,0.28215 0.08217,0.42168 0.08372,0.13797 0.235644,0.13797 0.10232,0 0.215491,-0.0915 0.114722,-0.0915 0.240295,-0.2713 v -0.72244 q -0.06666,-0.031 -0.147278,-0.0465 -0.08062,-0.017 -0.15968,-0.017 -0.220141,0 -0.344165,0.14262 -0.122473,0.14263 -0.122473,0.44649 z"
         style="fill:#782121"
         id="path6398" />
      <path
         d="m 62.063244,100.65702 q 0,0.0574 -0.0016,0.0961 -0.0016,0.0388 -0.0047,0.0729 h -1.092956 q 0,0.23875 0.133325,0.36742 0.133325,0.12713 0.384473,0.12713 0.06821,0 0.136426,-0.005 0.06821,-0.006 0.131774,-0.0155 0.06356,-0.009 0.120923,-0.0201 0.05891,-0.0124 0.108521,-0.0264 v 0.2217 q -0.110071,0.031 -0.249597,0.0496 -0.137976,0.0202 -0.286805,0.0202 -0.199987,0 -0.344165,-0.0543 -0.144177,-0.0543 -0.237194,-0.15658 -0.09147,-0.10387 -0.136426,-0.2527 -0.04341,-0.15038 -0.04341,-0.33951 0,-0.16433 0.04651,-0.31006 0.04806,-0.14728 0.137976,-0.25735 0.09147,-0.11162 0.223243,-0.176734 0.131775,-0.06511 0.299206,-0.06511 0.162781,0 0.288355,0.05116 0.125573,0.05116 0.21084,0.145724 0.08682,0.093 0.130224,0.22789 0.04496,0.13333 0.04496,0.29921 z m -0.280603,-0.0388 q 0.0047,-0.10387 -0.02015,-0.18913 -0.02481,-0.0868 -0.07751,-0.14883 -0.05116,-0.062 -0.128674,-0.0961 -0.07751,-0.0357 -0.179834,-0.0357 -0.08837,0 -0.161231,0.0341 -0.07286,0.0341 -0.125573,0.0961 -0.05271,0.062 -0.08527,0.14883 -0.03256,0.0868 -0.04031,0.19068 z"
         style="fill:#782121"
         id="path6400" />
      <path
         d="m 64.734399,99.326869 -0.04341,0.727091 h -0.254248 l -0.04496,-0.727091 z m 0.603064,0 -0.04341,0.727091 h -0.254248 l -0.04496,-0.727091 z"
         style="fill:#ff00ff"
         id="path6402" />
      <path
         d="m 67.194714,101.46007 q -0.10542,0.0403 -0.217041,0.0589 -0.110071,0.0202 -0.227894,0.0202 -0.368969,0 -0.568957,-0.19999 -0.198438,-0.19999 -0.198438,-0.58446 0,-0.18449 0.05736,-0.33486 0.05736,-0.15038 0.161231,-0.25735 0.103869,-0.10697 0.248047,-0.164334 0.144177,-0.05891 0.31781,-0.05891 0.120923,0 0.226342,0.01705 0.10542,0.01705 0.201539,0.05581 v 0.25735 q -0.100769,-0.0527 -0.206189,-0.076 -0.10387,-0.0248 -0.215491,-0.0248 -0.10387,0 -0.196887,0.0403 -0.09147,0.0387 -0.161231,0.11317 -0.06976,0.0744 -0.110071,0.18138 -0.04031,0.10697 -0.04031,0.24185 0,0.28215 0.136426,0.42323 0.137976,0.13952 0.381372,0.13952 0.11007,0 0.21239,-0.0248 0.103869,-0.0248 0.199988,-0.0744 z"
         style="fill:#ff00ff"
         id="path6404" />
      <path
         d="m 68.731054,101.51743 -0.0062,-0.20929 q -0.127124,0.12558 -0.258899,0.18139 -0.130224,0.0558 -0.274402,0.0558 -0.133325,0 -0.227893,-0.0341 -0.09457,-0.0341 -0.156579,-0.093 -0.06046,-0.0605 -0.08992,-0.14107 -0.02791,-0.0806 -0.02791,-0.17519 0,-0.23409 0.173633,-0.36586 0.175183,-0.13333 0.516248,-0.13333 h 0.322461 v -0.13643 q 0,-0.13797 -0.08837,-0.22014 -0.08837,-0.0837 -0.269751,-0.0837 -0.131775,0 -0.260449,0.0294 -0.127124,0.0295 -0.26355,0.0837 v -0.2434 q 0.05116,-0.0186 0.113171,-0.03565 0.06356,-0.0186 0.133326,-0.03256 0.06976,-0.01395 0.145727,-0.0217 0.07596,-0.0093 0.153479,-0.0093 0.141077,0 0.254248,0.03101 0.113172,0.03101 0.190686,0.09457 0.07906,0.0636 0.120923,0.15968 0.04186,0.0961 0.04186,0.22634 v 1.0728 z m -0.02945,-0.70848 h -0.342615 q -0.100769,0 -0.173633,0.0202 -0.07286,0.0202 -0.119372,0.0574 -0.04651,0.0372 -0.06976,0.0899 -0.0217,0.0512 -0.0217,0.11627 0,0.045 0.01395,0.0868 0.01395,0.0403 0.04496,0.0729 0.03101,0.031 0.08062,0.0496 0.04961,0.0186 0.120923,0.0186 0.09302,0 0.21239,-0.0558 0.120923,-0.0574 0.254248,-0.17984 z"
         style="fill:#ff00ff"
         id="path6406" />
      <path
         d="m 70.685974,101.46007 q -0.10542,0.0403 -0.217041,0.0589 -0.110071,0.0202 -0.227893,0.0202 -0.36897,0 -0.568957,-0.19999 -0.198438,-0.19999 -0.198438,-0.58446 0,-0.18449 0.05736,-0.33486 0.05736,-0.15038 0.16123,-0.25735 0.10387,-0.10697 0.248047,-0.164334 0.144177,-0.05891 0.31781,-0.05891 0.120923,0 0.226343,0.01705 0.10542,0.01705 0.201538,0.05581 v 0.25735 q -0.100769,-0.0527 -0.206189,-0.076 -0.103869,-0.0248 -0.215491,-0.0248 -0.103869,0 -0.196887,0.0403 -0.09147,0.0387 -0.16123,0.11317 -0.06976,0.0744 -0.110071,0.18138 -0.04031,0.10697 -0.04031,0.24185 0,0.28215 0.136426,0.42323 0.137976,0.13952 0.381372,0.13952 0.110071,0 0.21239,-0.0248 0.10387,-0.0248 0.199988,-0.0744 z"
         style="fill:#ff00ff"
         id="path6408" />
      <path
         d="m 72.473462,101.51743 h -0.269751 v -0.99373 q 0,-0.17984 -0.06821,-0.26821 -0.06666,-0.0899 -0.192236,-0.0899 -0.05426,0 -0.102319,0.0155 -0.04651,0.014 -0.09767,0.0512 -0.05116,0.0357 -0.111621,0.0977 -0.06046,0.062 -0.139526,0.15503 v 1.03249 h -0.269751 v -2.190561 h 0.269751 v 0.63407 l -0.0093,0.244951 q 0.06356,-0.076 0.124024,-0.12713 0.06201,-0.0527 0.122473,-0.08527 0.06201,-0.03256 0.125573,-0.04651 0.06356,-0.01395 0.131775,-0.01395 0.232544,0 0.359668,0.14263 0.127124,0.14108 0.127124,0.42633 z"
         style="fill:#ff00ff"
         id="path6410" />
      <path
         d="m 74.282653,100.65702 q 0,0.0574 -0.0016,0.0961 -0.0016,0.0388 -0.0047,0.0729 h -1.092956 q 0,0.23875 0.133325,0.36742 0.133325,0.12713 0.384473,0.12713 0.06821,0 0.136426,-0.005 0.06821,-0.006 0.131774,-0.0155 0.06356,-0.009 0.120923,-0.0201 0.05891,-0.0124 0.108521,-0.0264 v 0.2217 q -0.110071,0.031 -0.249597,0.0496 -0.137976,0.0202 -0.286805,0.0202 -0.199987,0 -0.344165,-0.0543 -0.144177,-0.0543 -0.237194,-0.15658 -0.09147,-0.10387 -0.136426,-0.2527 -0.04341,-0.15038 -0.04341,-0.33951 0,-0.16433 0.04651,-0.31006 0.04806,-0.14728 0.137976,-0.25735 0.09147,-0.11162 0.223243,-0.176734 0.131775,-0.06511 0.299206,-0.06511 0.162781,0 0.288355,0.05116 0.125573,0.05116 0.21084,0.145724 0.08682,0.093 0.130224,0.22789 0.04496,0.13333 0.04496,0.29921 z m -0.280603,-0.0388 q 0.0046,-0.10387 -0.02015,-0.18913 -0.02481,-0.0868 -0.07752,-0.14883 -0.05116,-0.062 -0.128674,-0.0961 -0.07751,-0.0357 -0.179834,-0.0357 -0.08837,0 -0.161231,0.0341 -0.07286,0.0341 -0.125573,0.0961 -0.05271,0.062 -0.08527,0.14883 -0.03256,0.0868 -0.04031,0.19068 z"
         style="fill:#ff00ff"
         id="path6412" />
      <path
         d="m 75.326,101.02909 q 0.05271,0 0.09922,0.0202 0.04806,0.0202 0.08217,0.0558 0.03566,0.0357 0.05581,0.0837 0.02015,0.0465 0.02015,0.10077 0,0.0527 -0.02015,0.0992 -0.02015,0.0465 -0.05581,0.0822 -0.03411,0.0341 -0.08217,0.0543 -0.04651,0.0202 -0.09922,0.0202 -0.05426,0 -0.100769,-0.0202 -0.04651,-0.0202 -0.08216,-0.0543 -0.03411,-0.0357 -0.05426,-0.0822 -0.02015,-0.0465 -0.02015,-0.0992 0,-0.0543 0.02015,-0.10077 0.02015,-0.0481 0.05426,-0.0837 0.03566,-0.0357 0.08216,-0.0558 0.04651,-0.0202 0.100769,-0.0202 z"
         style="fill:#ff00ff"
         id="path6414" />
      <path
         d="M 77.710351,101.51743 H 77.4406 v -0.99373 q 0,-0.17984 -0.06821,-0.26821 -0.06666,-0.0899 -0.192236,-0.0899 -0.05426,0 -0.102319,0.0155 -0.04651,0.014 -0.09767,0.0512 -0.05116,0.0357 -0.111621,0.0977 -0.06046,0.062 -0.139526,0.15503 v 1.03249 h -0.269751 v -2.190561 h 0.269751 v 0.63407 l -0.0093,0.244951 q 0.06356,-0.076 0.124023,-0.12713 0.06201,-0.0527 0.122474,-0.08527 0.06201,-0.03256 0.125573,-0.04651 0.06356,-0.01395 0.131775,-0.01395 0.232544,0 0.359668,0.14263 0.127124,0.14108 0.127124,0.42633 z"
         style="fill:#ff00ff"
         id="path6416" />
      <path
         d="m 78.699438,99.326869 -0.04341,0.727091 H 78.40178 l -0.04496,-0.727091 z m 0.603064,0 -0.04341,0.727091 h -0.254248 l -0.04496,-0.727091 z"
         style="fill:#ff00ff"
         id="path6418" />
      <path
         d="m 49.877941,104.91723 h -0.345715 l -0.05736,0.56895 h -0.229443 l 0.05736,-0.56895 h -0.395324 l -0.05736,0.56895 h -0.229443 l 0.05736,-0.56895 h -0.330212 v -0.20154 h 0.350366 l 0.05581,-0.54261 h -0.327112 v -0.20153 h 0.347266 l 0.05271,-0.5116 h 0.226343 l -0.05116,0.5116 h 0.396875 l 0.05271,-0.5116 h 0.229443 l -0.05426,0.5116 h 0.333313 v 0.20153 H 49.60664 l -0.05426,0.54261 h 0.325561 z m -0.553454,-0.20154 0.05426,-0.54261 h -0.396875 l -0.05426,0.54261 z"
         style="fill:#782121"
         id="path6420" />
      <path
         d="m 50.805016,104.15293 h -0.460437 v -0.22324 h 0.733289 v 1.3317 h 0.463537 v 0.22479 H 50.29342 v -0.22479 h 0.511596 z m 0.09457,-0.87591 q 0.04496,0 0.08372,0.0171 0.03876,0.0155 0.06666,0.045 0.02945,0.0295 0.04496,0.0682 0.01705,0.0372 0.01705,0.0822 0,0.0434 -0.01705,0.0822 -0.0155,0.0388 -0.04496,0.0682 -0.02791,0.0295 -0.06666,0.0465 -0.03876,0.0155 -0.08372,0.0155 -0.04496,0 -0.08372,-0.0155 -0.03876,-0.017 -0.06821,-0.0465 -0.02791,-0.0294 -0.04496,-0.0682 -0.0155,-0.0388 -0.0155,-0.0822 0,-0.045 0.0155,-0.0822 0.01705,-0.0388 0.04496,-0.0682 0.02945,-0.0295 0.06821,-0.045 0.03876,-0.0171 0.08372,-0.0171 z"
         style="fill:#782121"
         id="path6422" />
      <path
         d="m 52.020446,103.92969 h 0.240295 l 0.01085,0.25115 q 0.06821,-0.0806 0.131774,-0.13333 0.06356,-0.0543 0.124024,-0.0868 0.06201,-0.0326 0.125574,-0.045 0.06356,-0.014 0.131774,-0.014 0.240296,0 0.362769,0.14263 0.124023,0.14108 0.124023,0.42633 v 1.01544 h -0.269751 v -0.99373 q 0,-0.18294 -0.06821,-0.26976 -0.06821,-0.0884 -0.203089,-0.0884 -0.04961,0 -0.09767,0.0155 -0.04651,0.014 -0.09767,0.0512 -0.05116,0.0357 -0.111621,0.0977 -0.05891,0.062 -0.133325,0.15503 v 1.03249 h -0.269751 z"
         style="fill:#782121"
         id="path6424" />
      <path
         d="m 54.975305,105.42882 q -0.10542,0.0403 -0.217041,0.0589 -0.110071,0.0202 -0.227893,0.0202 -0.36897,0 -0.568958,-0.19999 -0.198438,-0.19999 -0.198438,-0.58446 0,-0.18449 0.05736,-0.33486 0.05736,-0.15038 0.161231,-0.25735 0.103869,-0.10697 0.248047,-0.16433 0.144177,-0.0589 0.31781,-0.0589 0.120923,0 0.226342,0.0171 0.10542,0.017 0.201539,0.0558 v 0.25735 q -0.100769,-0.0527 -0.206189,-0.076 -0.10387,-0.0248 -0.215491,-0.0248 -0.10387,0 -0.196887,0.0403 -0.09147,0.0387 -0.161231,0.11317 -0.06976,0.0744 -0.110071,0.18138 -0.04031,0.10697 -0.04031,0.24185 0,0.28215 0.136426,0.42323 0.137976,0.13952 0.381372,0.13952 0.11007,0 0.21239,-0.0248 0.103869,-0.0248 0.199988,-0.0744 z"
         style="fill:#782121"
         id="path6426" />
      <path
         d="m 56.041906,103.51731 h -0.460437 v -0.22169 h 0.733289 v 1.96577 h 0.463537 v 0.22479 h -1.247986 v -0.22479 h 0.511597 z"
         style="fill:#782121"
         id="path6428" />
      <path
         d="m 58.508422,105.48618 h -0.241846 l -0.0093,-0.25114 q -0.06976,0.0806 -0.133326,0.13487 -0.06201,0.0527 -0.124023,0.0853 -0.06201,0.0326 -0.125574,0.045 -0.06201,0.0139 -0.131775,0.0139 -0.240295,0 -0.362768,-0.14108 -0.122473,-0.14107 -0.122473,-0.42633 v -1.01699 h 0.269751 v 0.99529 q 0,0.35811 0.269751,0.35811 0.04961,0 0.09612,-0.014 0.04806,-0.0155 0.09922,-0.0512 0.05271,-0.0372 0.111621,-0.0992 0.06046,-0.062 0.134875,-0.15658 v -1.03249 h 0.269751 z"
         style="fill:#782121"
         id="path6430" />
      <path
         d="m 58.923901,104.74049 q 0,-0.19844 0.05426,-0.35191 0.05426,-0.15503 0.153479,-0.26045 0.100769,-0.10697 0.240296,-0.16123 0.141076,-0.0558 0.313159,-0.0558 0.07441,0 0.145727,0.009 0.07286,0.009 0.142627,0.0294 v -0.65422 h 0.271302 v 2.19056 h -0.241846 l -0.0093,-0.29455 q -0.113171,0.16433 -0.244946,0.24339 -0.131775,0.0791 -0.285254,0.0791 -0.133325,0 -0.235645,-0.0558 -0.100769,-0.0558 -0.168982,-0.15658 -0.06666,-0.10232 -0.100769,-0.24495 -0.03411,-0.14262 -0.03411,-0.31626 z m 0.275952,-0.017 q 0,0.28215 0.08217,0.42168 0.08372,0.13797 0.235644,0.13797 0.10232,0 0.215491,-0.0915 0.114722,-0.0915 0.240295,-0.2713 v -0.72244 q -0.06666,-0.031 -0.147278,-0.0465 -0.08062,-0.017 -0.15968,-0.017 -0.220141,0 -0.344165,0.14262 -0.122473,0.14263 -0.122473,0.44649 z"
         style="fill:#782121"
         id="path6432" />
      <path
         d="m 62.063244,104.62577 q 0,0.0574 -0.0016,0.0961 -0.0016,0.0388 -0.0047,0.0729 h -1.092956 q 0,0.23875 0.133325,0.36742 0.133325,0.12713 0.384473,0.12713 0.06821,0 0.136426,-0.005 0.06821,-0.006 0.131774,-0.0155 0.06356,-0.009 0.120923,-0.0201 0.05891,-0.0124 0.108521,-0.0264 v 0.2217 q -0.110071,0.031 -0.249597,0.0496 -0.137976,0.0202 -0.286805,0.0202 -0.199987,0 -0.344165,-0.0543 -0.144177,-0.0543 -0.237194,-0.15658 -0.09147,-0.10387 -0.136426,-0.2527 -0.04341,-0.15038 -0.04341,-0.33951 0,-0.16433 0.04651,-0.31006 0.04806,-0.14728 0.137976,-0.25735 0.09147,-0.11162 0.223243,-0.17673 0.131775,-0.0651 0.299206,-0.0651 0.162781,0 0.288355,0.0512 0.125573,0.0512 0.21084,0.14573 0.08682,0.093 0.130224,0.22789 0.04496,0.13333 0.04496,0.29921 z m -0.280603,-0.0388 q 0.0047,-0.10387 -0.02015,-0.18913 -0.02481,-0.0868 -0.07751,-0.14883 -0.05116,-0.062 -0.128674,-0.0961 -0.07751,-0.0357 -0.179834,-0.0357 -0.08837,0 -0.161231,0.0341 -0.07286,0.0341 -0.125573,0.0961 -0.05271,0.062 -0.08527,0.14883 -0.03256,0.0868 -0.04031,0.19068 z"
         style="fill:#782121"
         id="path6434" />
      <path
         d="m 64.734399,103.29562 -0.04341,0.72709 h -0.254248 l -0.04496,-0.72709 z m 0.603064,0 -0.04341,0.72709 h -0.254248 l -0.04496,-0.72709 z"
         style="fill:#ff00ff"
         id="path6436" />
      <path
         d="m 67.194714,105.42882 q -0.10542,0.0403 -0.217041,0.0589 -0.110071,0.0202 -0.227894,0.0202 -0.368969,0 -0.568957,-0.19999 -0.198438,-0.19999 -0.198438,-0.58446 0,-0.18449 0.05736,-0.33486 0.05736,-0.15038 0.161231,-0.25735 0.103869,-0.10697 0.248047,-0.16433 0.144177,-0.0589 0.31781,-0.0589 0.120923,0 0.226342,0.0171 0.10542,0.017 0.201539,0.0558 v 0.25735 q -0.100769,-0.0527 -0.206189,-0.076 -0.10387,-0.0248 -0.215491,-0.0248 -0.10387,0 -0.196887,0.0403 -0.09147,0.0387 -0.161231,0.11317 -0.06976,0.0744 -0.110071,0.18138 -0.04031,0.10697 -0.04031,0.24185 0,0.28215 0.136426,0.42323 0.137976,0.13952 0.381372,0.13952 0.11007,0 0.21239,-0.0248 0.103869,-0.0248 0.199988,-0.0744 z"
         style="fill:#ff00ff"
         id="path6438" />
      <path
         d="m 69.086071,104.69553 q 0,0.18139 -0.05116,0.33332 -0.05116,0.15038 -0.147278,0.2589 -0.09612,0.10697 -0.234094,0.16743 -0.137976,0.0589 -0.31316,0.0589 -0.167431,0 -0.300756,-0.0512 -0.131775,-0.0527 -0.224793,-0.15348 -0.09147,-0.10077 -0.141077,-0.2496 -0.04806,-0.14883 -0.04806,-0.34261 0,-0.18139 0.05116,-0.33021 0.05116,-0.15038 0.147278,-0.25735 0.09612,-0.10852 0.234094,-0.16743 0.137976,-0.0605 0.313159,-0.0605 0.167432,0 0.299207,0.0527 0.133325,0.0512 0.224792,0.15193 0.09302,0.0992 0.141077,0.24805 0.04961,0.14883 0.04961,0.34106 z m -0.275952,0.0124 q 0,-0.14418 -0.03256,-0.25115 -0.03101,-0.10852 -0.08992,-0.17984 -0.05891,-0.0729 -0.144177,-0.10852 -0.08372,-0.0372 -0.187586,-0.0372 -0.120922,0 -0.207739,0.0481 -0.08527,0.0465 -0.141077,0.12557 -0.05426,0.0791 -0.08062,0.18448 -0.0248,0.10387 -0.0248,0.2186 0,0.14417 0.03101,0.25269 0.03256,0.10852 0.09147,0.18139 0.05891,0.0713 0.142627,0.10852 0.08371,0.0357 0.189135,0.0357 0.120923,0 0.206189,-0.0465 0.08682,-0.0481 0.141077,-0.12713 0.05581,-0.0791 0.08062,-0.18293 0.02635,-0.10542 0.02635,-0.22169 z"
         style="fill:#ff00ff"
         id="path6440" />
      <path
         d="m 69.476746,103.92969 h 0.240295 l 0.01085,0.25115 q 0.06821,-0.0806 0.131775,-0.13333 0.06356,-0.0543 0.124023,-0.0868 0.06201,-0.0326 0.125574,-0.045 0.06356,-0.014 0.131775,-0.014 0.240295,0 0.362769,0.14263 0.124023,0.14108 0.124023,0.42633 v 1.01544 h -0.269751 v -0.99373 q 0,-0.18294 -0.06821,-0.26976 -0.06821,-0.0884 -0.203088,-0.0884 -0.04961,0 -0.09767,0.0155 -0.04651,0.014 -0.09767,0.0512 -0.05116,0.0357 -0.111621,0.0977 -0.05891,0.062 -0.133325,0.15503 v 1.03249 h -0.269751 z"
         style="fill:#ff00ff"
         id="path6442" />
      <path
         d="m 72.603687,103.54677 q -0.21239,-0.045 -0.365869,-0.045 -0.364319,0 -0.364319,0.38137 v 0.27285 h 0.682129 v 0.22479 h -0.682129 v 1.10536 h -0.274402 v -1.10536 h -0.500745 v -0.22479 h 0.500745 v -0.25735 q 0,-0.62166 0.648023,-0.62166 0.16123,0 0.356567,0.0372 z m -1.629358,0.38292 z"
         style="fill:#ff00ff"
         id="path6444" />
      <path
         d="m 73.498204,104.15293 h -0.460437 v -0.22324 h 0.733289 v 1.3317 h 0.463538 v 0.22479 h -1.247986 v -0.22479 h 0.511596 z m 0.09457,-0.87591 q 0.04496,0 0.08372,0.0171 0.03876,0.0155 0.06666,0.045 0.02945,0.0295 0.04496,0.0682 0.01705,0.0372 0.01705,0.0822 0,0.0434 -0.01705,0.0822 -0.0155,0.0388 -0.04496,0.0682 -0.02791,0.0295 -0.06666,0.0465 -0.03876,0.0155 -0.08372,0.0155 -0.04496,0 -0.08372,-0.0155 -0.03876,-0.017 -0.06821,-0.0465 -0.02791,-0.0294 -0.04496,-0.0682 -0.0155,-0.0388 -0.0155,-0.0822 0,-0.045 0.0155,-0.0822 0.01705,-0.0388 0.04496,-0.0682 0.02945,-0.0295 0.06821,-0.045 0.03876,-0.0171 0.08372,-0.0171 z"
         style="fill:#ff00ff"
         id="path6446" />
      <path
         d="m 75.834496,104.14983 q 0.04341,0.0543 0.06666,0.12712 0.0248,0.0713 0.0248,0.15503 0,0.12093 -0.04496,0.2217 -0.04341,0.0992 -0.124023,0.17053 -0.08062,0.0713 -0.193787,0.11162 -0.111621,0.0388 -0.246497,0.0388 -0.09767,0 -0.182934,-0.0202 -0.08527,-0.0217 -0.134876,-0.0527 -0.02945,0.0434 -0.04961,0.0822 -0.02015,0.0388 -0.02015,0.0868 0,0.0589 0.05581,0.0977 0.05736,0.0388 0.150378,0.0419 l 0.409278,0.0155 q 0.116271,0.003 0.21394,0.0295 0.09922,0.0264 0.168982,0.076 0.07131,0.0496 0.110071,0.12248 0.04031,0.0729 0.04031,0.16898 0,0.10387 -0.04496,0.19689 -0.04496,0.093 -0.139527,0.16278 -0.09302,0.0713 -0.237194,0.11317 -0.144178,0.0419 -0.342615,0.0419 -0.189136,0 -0.322461,-0.031 -0.131775,-0.0295 -0.217041,-0.0837 -0.08527,-0.0527 -0.124024,-0.12712 -0.03876,-0.0729 -0.03876,-0.16123 0,-0.11317 0.05271,-0.19844 0.05271,-0.0853 0.162781,-0.16433 -0.04031,-0.0186 -0.06976,-0.0465 -0.02946,-0.0279 -0.04806,-0.0605 -0.0186,-0.0341 -0.02791,-0.0713 -0.0093,-0.0372 -0.0093,-0.0729 0,-0.10077 0.04651,-0.18448 0.04806,-0.0837 0.113172,-0.15813 -0.02946,-0.0357 -0.05271,-0.0698 -0.0217,-0.0341 -0.03876,-0.0729 -0.0155,-0.0403 -0.0248,-0.0853 -0.0078,-0.0465 -0.0078,-0.10542 0,-0.12093 0.04341,-0.22015 0.04496,-0.10076 0.124023,-0.17208 0.08061,-0.0713 0.192236,-0.11007 0.113172,-0.0403 0.249597,-0.0403 0.05736,0 0.110071,0.008 0.05271,0.008 0.09302,0.0201 h 0.564306 v 0.22014 z m -0.936377,1.56115 q 0,0.11007 0.114722,0.15968 0.114722,0.0512 0.31936,0.0512 0.128675,0 0.215491,-0.0233 0.08837,-0.0233 0.141077,-0.062 0.05426,-0.0372 0.07751,-0.0868 0.02325,-0.0481 0.02325,-0.0992 0,-0.0946 -0.07751,-0.13952 -0.07752,-0.045 -0.237195,-0.0527 l -0.406176,-0.014 q -0.05116,0.0341 -0.08527,0.0667 -0.03256,0.0325 -0.05116,0.0651 -0.0186,0.0341 -0.02635,0.0667 -0.0078,0.0341 -0.0078,0.0682 z m 0.08217,-1.27279 q 0,0.0744 0.02481,0.13642 0.0248,0.062 0.06976,0.10542 0.04496,0.0434 0.10542,0.0682 0.06201,0.0233 0.136425,0.0233 0.08062,0 0.142627,-0.0264 0.06356,-0.0279 0.10542,-0.0744 0.04341,-0.0465 0.06511,-0.10697 0.02325,-0.0605 0.02325,-0.12557 0,-0.0744 -0.0248,-0.13643 -0.0248,-0.062 -0.06976,-0.10542 -0.04496,-0.0434 -0.10697,-0.0667 -0.06046,-0.0248 -0.134876,-0.0248 -0.08062,0 -0.144177,0.0279 -0.06201,0.0279 -0.10542,0.0744 -0.04186,0.045 -0.06511,0.10542 -0.0217,0.0605 -0.0217,0.12558 z"
         style="fill:#ff00ff"
         id="path6448" />
      <path
         d="m 77.07163,104.99784 q 0.05271,0 0.09922,0.0202 0.04806,0.0202 0.08217,0.0558 0.03566,0.0357 0.05581,0.0837 0.02015,0.0465 0.02015,0.10077 0,0.0527 -0.02015,0.0992 -0.02015,0.0465 -0.05581,0.0822 -0.03411,0.0341 -0.08217,0.0543 -0.04651,0.0202 -0.09922,0.0202 -0.05426,0 -0.100769,-0.0202 -0.04651,-0.0202 -0.08217,-0.0543 -0.03411,-0.0357 -0.05426,-0.0822 -0.02015,-0.0465 -0.02015,-0.0992 0,-0.0543 0.02015,-0.10077 0.02015,-0.0481 0.05426,-0.0837 0.03566,-0.0357 0.08217,-0.0558 0.04651,-0.0202 0.100769,-0.0202 z"
         style="fill:#ff00ff"
         id="path6450" />
      <path
         d="M 79.455981,105.48618 H 79.18623 v -0.99373 q 0,-0.17984 -0.06821,-0.26821 -0.06666,-0.0899 -0.192237,-0.0899 -0.05426,0 -0.102319,0.0155 -0.04651,0.014 -0.09767,0.0512 -0.05116,0.0357 -0.111621,0.0977 -0.06046,0.062 -0.139526,0.15503 v 1.03249 h -0.269751 v -2.19056 h 0.269751 v 0.63407 l -0.0093,0.24495 q 0.06356,-0.076 0.124024,-0.12713 0.06201,-0.0527 0.122473,-0.0853 0.06201,-0.0326 0.125574,-0.0465 0.06356,-0.014 0.131774,-0.014 0.232544,0 0.359668,0.14263 0.127124,0.14108 0.127124,0.42633 z"
         style="fill:#ff00ff"
         id="path6452" />
      <path
         d="m 80.445069,103.29562 -0.04341,0.72709 H 80.14741 l -0.04496,-0.72709 z m 0.603064,0 -0.04341,0.72709 h -0.254248 l -0.04496,-0.72709 z"
         style="fill:#ff00ff"
         id="path6454" />
      <path
         d="m 49.153954,108.31857 q 0.05271,0 0.09922,0.0217 0.04806,0.0202 0.08217,0.0558 0.03566,0.0341 0.05581,0.0822 0.02015,0.0481 0.02015,0.10077 0,0.0527 -0.02015,0.0992 -0.02015,0.0465 -0.05581,0.0822 -0.03411,0.0341 -0.08217,0.0558 -0.04651,0.0202 -0.09922,0.0202 -0.05426,0 -0.100769,-0.0202 -0.04651,-0.0217 -0.08216,-0.0558 -0.03411,-0.0357 -0.05426,-0.0822 -0.02015,-0.0465 -0.02015,-0.0992 0,-0.0527 0.02015,-0.10077 0.02015,-0.0481 0.05426,-0.0822 0.03566,-0.0357 0.08216,-0.0558 0.04651,-0.0217 0.100769,-0.0217 z"
         style="fill:#333333;stroke-width:0.264583"
         id="path6456" />
      <path
         d="m 50.899584,108.31857 q 0.05271,0 0.09922,0.0217 0.04806,0.0202 0.08216,0.0558 0.03566,0.0341 0.05581,0.0822 0.02015,0.0481 0.02015,0.10077 0,0.0527 -0.02015,0.0992 -0.02015,0.0465 -0.05581,0.0822 -0.03411,0.0341 -0.08216,0.0558 -0.04651,0.0202 -0.09922,0.0202 -0.05426,0 -0.100769,-0.0202 -0.04651,-0.0217 -0.08216,-0.0558 -0.03411,-0.0357 -0.05426,-0.0822 -0.02015,-0.0465 -0.02015,-0.0992 0,-0.0527 0.02015,-0.10077 0.02015,-0.0481 0.05426,-0.0822 0.03566,-0.0357 0.08216,-0.0558 0.04651,-0.0217 0.100769,-0.0217 z"
         style="fill:#333333;stroke-width:0.264583"
         id="path6458" />
      <path
         d="m 52.645214,108.31857 q 0.05271,0 0.09922,0.0217 0.04806,0.0202 0.08216,0.0558 0.03566,0.0341 0.05581,0.0822 0.02015,0.0481 0.02015,0.10077 0,0.0527 -0.02015,0.0992 -0.02015,0.0465 -0.05581,0.0822 -0.03411,0.0341 -0.08216,0.0558 -0.04651,0.0202 -0.09922,0.0202 -0.05426,0 -0.100769,-0.0202 -0.04651,-0.0217 -0.08217,-0.0558 -0.03411,-0.0357 -0.05426,-0.0822 -0.02015,-0.0465 -0.02015,-0.0992 0,-0.0527 0.02015,-0.10077 0.02015,-0.0481 0.05426,-0.0822 0.03566,-0.0357 0.08217,-0.0558 0.04651,-0.0217 0.100769,-0.0217 z"
         style="fill:#333333;stroke-width:0.264583"
         id="path6460" />
      <path
         d="m 49.761669,112.9989 q 0,0.0822 -0.0279,0.14728 -0.02791,0.0651 -0.07596,0.11627 -0.04806,0.0496 -0.111622,0.0853 -0.06356,0.0357 -0.136425,0.0589 -0.07131,0.0232 -0.147278,0.0341 -0.07597,0.0108 -0.148828,0.0108 -0.15813,0 -0.291455,-0.0139 -0.131775,-0.014 -0.258899,-0.045 v -0.24805 q 0.136425,0.0388 0.271301,0.0589 0.134875,0.0202 0.268201,0.0202 0.193786,0 0.286804,-0.0527 0.09302,-0.0527 0.09302,-0.15038 0,-0.0419 -0.0155,-0.0744 -0.01395,-0.0341 -0.05271,-0.0636 -0.03876,-0.031 -0.120923,-0.0636 -0.08062,-0.0326 -0.221692,-0.0744 -0.10542,-0.031 -0.195337,-0.0698 -0.08837,-0.0403 -0.153479,-0.0946 -0.06511,-0.0543 -0.102319,-0.12712 -0.03721,-0.0729 -0.03721,-0.17208 0,-0.0651 0.02946,-0.14263 0.03101,-0.0775 0.10387,-0.14418 0.07286,-0.0667 0.196887,-0.11007 0.124023,-0.045 0.310058,-0.045 0.09147,0 0.203089,0.0109 0.111621,0.009 0.232544,0.0341 v 0.2403 q -0.127124,-0.031 -0.241846,-0.045 -0.113171,-0.0155 -0.196887,-0.0155 -0.100769,0 -0.170532,0.0155 -0.06821,0.0155 -0.111621,0.0434 -0.04186,0.0263 -0.06046,0.0636 -0.0186,0.0357 -0.0186,0.0775 0,0.0419 0.0155,0.076 0.01705,0.0341 0.06046,0.0667 0.04496,0.031 0.124023,0.0636 0.07906,0.031 0.206189,0.0682 0.137976,0.0403 0.232544,0.0853 0.09457,0.0434 0.153479,0.0977 0.05891,0.0543 0.08372,0.12247 0.02635,0.0682 0.02635,0.15503 z"
         style="fill:#008000"
         id="path6462" />
      <path
         d="m 51.529003,113.40198 q -0.09147,0.0233 -0.189136,0.0326 -0.09767,0.0109 -0.198437,0.0109 -0.293005,0 -0.437183,-0.13178 -0.144177,-0.13332 -0.144177,-0.40772 v -0.81236 h -0.435632 v -0.22634 h 0.435632 v -0.42788 l 0.269751,-0.0698 v 0.49765 h 0.699182 v 0.22634 h -0.699182 v 0.79065 q 0,0.16743 0.08837,0.25115 0.08992,0.0822 0.26355,0.0822 0.07441,0 0.16278,-0.0109 0.08837,-0.0124 0.184485,-0.0372 z"
         style="fill:#008000"
         id="path6464" />
      <path
         d="m 53.020385,113.42368 -0.0062,-0.20929 q -0.127124,0.12558 -0.258899,0.18139 -0.130225,0.0558 -0.274402,0.0558 -0.133325,0 -0.227893,-0.0341 -0.09457,-0.0341 -0.15658,-0.093 -0.06046,-0.0605 -0.08992,-0.14107 -0.0279,-0.0806 -0.0279,-0.17519 0,-0.23409 0.173633,-0.36586 0.175183,-0.13333 0.516248,-0.13333 h 0.32246 v -0.13643 q 0,-0.13797 -0.08837,-0.22014 -0.08837,-0.0837 -0.269751,-0.0837 -0.131775,0 -0.260449,0.0294 -0.127124,0.0295 -0.26355,0.0837 v -0.2434 q 0.05116,-0.0186 0.113171,-0.0357 0.06356,-0.0186 0.133325,-0.0326 0.06976,-0.0139 0.145728,-0.0217 0.07596,-0.009 0.153479,-0.009 0.141077,0 0.254248,0.031 0.113171,0.031 0.190686,0.0946 0.07906,0.0636 0.120923,0.15968 0.04186,0.0961 0.04186,0.22634 v 1.0728 z m -0.02946,-0.70848 h -0.342614 q -0.100769,0 -0.173633,0.0202 -0.07286,0.0202 -0.119373,0.0574 -0.04651,0.0372 -0.06976,0.0899 -0.0217,0.0512 -0.0217,0.11627 0,0.045 0.01395,0.0868 0.01395,0.0403 0.04496,0.0729 0.03101,0.031 0.08062,0.0496 0.04961,0.0186 0.120923,0.0186 0.09302,0 0.21239,-0.0558 0.120923,-0.0574 0.254248,-0.17984 z"
         style="fill:#008000"
         id="path6466" />
      <path
         d="m 55.020263,113.40198 q -0.09147,0.0233 -0.189136,0.0326 -0.09767,0.0109 -0.198437,0.0109 -0.293006,0 -0.437183,-0.13178 -0.144177,-0.13332 -0.144177,-0.40772 v -0.81236 h -0.435632 v -0.22634 h 0.435632 v -0.42788 l 0.269751,-0.0698 v 0.49765 h 0.699182 v 0.22634 h -0.699182 v 0.79065 q 0,0.16743 0.08837,0.25115 0.08992,0.0822 0.263549,0.0822 0.07441,0 0.162781,-0.0109 0.08837,-0.0124 0.184485,-0.0372 z"
         style="fill:#008000"
         id="path6468" />
      <path
         d="m 56.041906,112.09043 h -0.460437 v -0.22324 h 0.733289 v 1.3317 h 0.463537 v 0.22479 h -1.247986 v -0.22479 h 0.511597 z m 0.09457,-0.87591 q 0.04496,0 0.08372,0.0171 0.03876,0.0155 0.06666,0.045 0.02946,0.0295 0.04496,0.0682 0.01705,0.0372 0.01705,0.0822 0,0.0434 -0.01705,0.0822 -0.0155,0.0388 -0.04496,0.0682 -0.02791,0.0295 -0.06666,0.0465 -0.03876,0.0155 -0.08372,0.0155 -0.04496,0 -0.08372,-0.0155 -0.03876,-0.017 -0.06821,-0.0465 -0.0279,-0.0294 -0.04496,-0.0682 -0.0155,-0.0388 -0.0155,-0.0822 0,-0.045 0.0155,-0.0822 0.01705,-0.0388 0.04496,-0.0682 0.02946,-0.0295 0.06821,-0.045 0.03876,-0.0171 0.08372,-0.0171 z"
         style="fill:#008000"
         id="path6470" />
      <path
         d="m 58.466564,113.36632 q -0.10542,0.0403 -0.217041,0.0589 -0.110071,0.0202 -0.227893,0.0202 -0.36897,0 -0.568957,-0.19999 -0.198438,-0.19999 -0.198438,-0.58446 0,-0.18449 0.05736,-0.33486 0.05736,-0.15038 0.16123,-0.25735 0.10387,-0.10697 0.248047,-0.16433 0.144177,-0.0589 0.31781,-0.0589 0.120923,0 0.226343,0.0171 0.10542,0.017 0.201538,0.0558 v 0.25735 q -0.100769,-0.0527 -0.206189,-0.076 -0.103869,-0.0248 -0.215491,-0.0248 -0.103869,0 -0.196887,0.0403 -0.09147,0.0387 -0.16123,0.11317 -0.06976,0.0744 -0.110071,0.18138 -0.04031,0.10697 -0.04031,0.24185 0,0.28215 0.136426,0.42323 0.137976,0.13952 0.381372,0.13952 0.110071,0 0.21239,-0.0248 0.10387,-0.0248 0.199988,-0.0744 z"
         style="fill:#008000"
         id="path6472" />
      <path
         d="m 60.602868,111.86719 h 0.306958 l 0.381372,1.02939 0.08216,0.25115 0.08527,-0.25735 0.378272,-1.02319 h 0.296106 l -0.610816,1.55649 h -0.310058 z"
         style="fill:#008000"
         id="path6474" />
      <path
         d="m 63.849182,112.63303 q 0,0.18139 -0.05116,0.33332 -0.05116,0.15037 -0.147278,0.2589 -0.09612,0.10697 -0.234094,0.16743 -0.137976,0.0589 -0.313159,0.0589 -0.167432,0 -0.300757,-0.0512 -0.131775,-0.0527 -0.224793,-0.15348 -0.09147,-0.10077 -0.141076,-0.2496 -0.04806,-0.14883 -0.04806,-0.34261 0,-0.18139 0.05116,-0.33021 0.05116,-0.15038 0.147278,-0.25735 0.09612,-0.10852 0.234094,-0.16743 0.137976,-0.0605 0.313159,-0.0605 0.167432,0 0.299207,0.0527 0.133325,0.0512 0.224793,0.15193 0.09302,0.0992 0.141076,0.24805 0.04961,0.14883 0.04961,0.34106 z m -0.275953,0.0124 q 0,-0.14418 -0.03256,-0.25115 -0.03101,-0.10852 -0.08992,-0.17984 -0.05891,-0.0729 -0.144177,-0.10852 -0.08372,-0.0372 -0.187585,-0.0372 -0.120923,0 -0.20774,0.0481 -0.08527,0.0465 -0.141076,0.12557 -0.05426,0.0791 -0.08062,0.18448 -0.0248,0.10387 -0.0248,0.2186 0,0.14417 0.03101,0.25269 0.03256,0.10852 0.09147,0.18139 0.05891,0.0713 0.142627,0.10852 0.08372,0.0357 0.189136,0.0357 0.120922,0 0.206189,-0.0465 0.08682,-0.0481 0.141076,-0.12713 0.05581,-0.0791 0.08062,-0.18293 0.02635,-0.10542 0.02635,-0.22169 z"
         style="fill:#008000"
         id="path6476" />
      <path
         d="m 64.770056,112.09043 h -0.460437 v -0.22324 h 0.733289 v 1.3317 h 0.463537 v 0.22479 h -1.247986 v -0.22479 h 0.511597 z m 0.09457,-0.87591 q 0.04496,0 0.08372,0.0171 0.03876,0.0155 0.06666,0.045 0.02946,0.0295 0.04496,0.0682 0.01705,0.0372 0.01705,0.0822 0,0.0434 -0.01705,0.0822 -0.0155,0.0388 -0.04496,0.0682 -0.0279,0.0295 -0.06666,0.0465 -0.03876,0.0155 -0.08372,0.0155 -0.04496,0 -0.08372,-0.0155 -0.03876,-0.017 -0.06821,-0.0465 -0.0279,-0.0294 -0.04496,-0.0682 -0.0155,-0.0388 -0.0155,-0.0822 0,-0.045 0.0155,-0.0822 0.01705,-0.0388 0.04496,-0.0682 0.02946,-0.0295 0.06821,-0.045 0.03876,-0.0171 0.08372,-0.0171 z"
         style="fill:#008000"
         id="path6478" />
      <path
         d="m 65.90642,112.67799 q 0,-0.19844 0.05426,-0.35191 0.05426,-0.15503 0.153479,-0.26045 0.100769,-0.10697 0.240296,-0.16123 0.141076,-0.0558 0.313159,-0.0558 0.07441,0 0.145728,0.009 0.07286,0.009 0.142626,0.0294 v -0.65422 h 0.271302 v 2.19056 h -0.241846 l -0.0093,-0.29455 q -0.113171,0.16433 -0.244946,0.24339 -0.131775,0.0791 -0.285254,0.0791 -0.133325,0 -0.235644,-0.0558 -0.100769,-0.0558 -0.168982,-0.15658 -0.06666,-0.10232 -0.100769,-0.24495 -0.03411,-0.14263 -0.03411,-0.31626 z m 0.275952,-0.017 q 0,0.28215 0.08217,0.42168 0.08372,0.13797 0.235644,0.13797 0.10232,0 0.215491,-0.0915 0.114722,-0.0915 0.240295,-0.2713 v -0.72244 q -0.06666,-0.031 -0.147277,-0.0465 -0.08062,-0.017 -0.159681,-0.017 -0.220141,0 -0.344165,0.14262 -0.122473,0.14263 -0.122473,0.44649 z"
         style="fill:#008000"
         id="path6480" />
      <path
         d="m 70.709228,112.9989 q 0,0.0822 -0.0279,0.14728 -0.02791,0.0651 -0.07596,0.11627 -0.04806,0.0496 -0.111621,0.0853 -0.06356,0.0357 -0.136426,0.0589 -0.07131,0.0232 -0.147278,0.0341 -0.07596,0.0108 -0.148828,0.0108 -0.15813,0 -0.291455,-0.0139 -0.131775,-0.014 -0.258899,-0.045 v -0.24805 q 0.136426,0.0388 0.271301,0.0589 0.134876,0.0202 0.268201,0.0202 0.193787,0 0.286804,-0.0527 0.09302,-0.0527 0.09302,-0.15038 0,-0.0419 -0.0155,-0.0744 -0.01395,-0.0341 -0.05271,-0.0636 -0.03876,-0.031 -0.120923,-0.0636 -0.08061,-0.0326 -0.221692,-0.0744 -0.10542,-0.031 -0.195337,-0.0698 -0.08837,-0.0403 -0.153479,-0.0946 -0.06511,-0.0543 -0.102319,-0.12712 -0.03721,-0.0729 -0.03721,-0.17208 0,-0.0651 0.02945,-0.14263 0.03101,-0.0775 0.10387,-0.14418 0.07286,-0.0667 0.196887,-0.11007 0.124024,-0.045 0.310059,-0.045 0.09147,0 0.203088,0.0109 0.111621,0.009 0.232544,0.0341 v 0.2403 q -0.127124,-0.031 -0.241846,-0.045 -0.113171,-0.0155 -0.196887,-0.0155 -0.100769,0 -0.170532,0.0155 -0.06821,0.0155 -0.111621,0.0434 -0.04186,0.0263 -0.06046,0.0636 -0.0186,0.0357 -0.0186,0.0775 0,0.0419 0.0155,0.076 0.01705,0.0341 0.06046,0.0667 0.04496,0.031 0.124024,0.0636 0.07906,0.031 0.206189,0.0682 0.137976,0.0403 0.232544,0.0853 0.09457,0.0434 0.153479,0.0977 0.05891,0.0543 0.08372,0.12247 0.02635,0.0682 0.02635,0.15503 z"
         style="stroke-width:0.264583"
         id="path6482" />
      <path
         d="m 72.476563,113.40198 q -0.09147,0.0233 -0.189136,0.0326 -0.09767,0.0109 -0.198437,0.0109 -0.293006,0 -0.437183,-0.13178 -0.144177,-0.13332 -0.144177,-0.40772 v -0.81236 h -0.435633 v -0.22634 h 0.435633 v -0.42788 l 0.269751,-0.0698 v 0.49765 h 0.699182 v 0.22634 h -0.699182 v 0.79065 q 0,0.16743 0.08837,0.25115 0.08992,0.0822 0.26355,0.0822 0.07441,0 0.162781,-0.0109 0.08837,-0.0124 0.184485,-0.0372 z"
         style="stroke-width:0.264583"
         id="path6484" />
      <path
         d="m 72.888939,112.67799 q 0,-0.19844 0.05426,-0.35191 0.05426,-0.15503 0.153479,-0.26045 0.100769,-0.10697 0.240295,-0.16123 0.141077,-0.0558 0.313159,-0.0558 0.07441,0 0.145728,0.009 0.07286,0.009 0.142627,0.0294 v -0.65422 h 0.271301 v 2.19056 h -0.241846 l -0.0093,-0.29455 q -0.113171,0.16433 -0.244946,0.24339 -0.131775,0.0791 -0.285254,0.0791 -0.133325,0 -0.235644,-0.0558 -0.100769,-0.0558 -0.168982,-0.15658 -0.06666,-0.10232 -0.100769,-0.24495 -0.03411,-0.14263 -0.03411,-0.31626 z m 0.275952,-0.017 q 0,0.28215 0.08217,0.42168 0.08372,0.13797 0.235644,0.13797 0.10232,0 0.215491,-0.0915 0.114722,-0.0915 0.240296,-0.2713 v -0.72244 q -0.06666,-0.031 -0.147278,-0.0465 -0.08062,-0.017 -0.15968,-0.017 -0.220142,0 -0.344165,0.14262 -0.122474,0.14263 -0.122474,0.44649 z"
         style="stroke-width:0.264583"
         id="path6486" />
      <path
         d="m 76.211217,114.0593 h -1.745629 v -0.22324 h 1.745629 z"
         style="stroke-width:0.264583"
         id="path6488" />
      <path
         d="m 77.814221,112.63303 q 0,0.18139 -0.05116,0.33332 -0.05116,0.15037 -0.147278,0.2589 -0.09612,0.10697 -0.234094,0.16743 -0.137976,0.0589 -0.313159,0.0589 -0.167432,0 -0.300757,-0.0512 -0.131775,-0.0527 -0.224792,-0.15348 -0.09147,-0.10077 -0.141077,-0.2496 -0.04806,-0.14883 -0.04806,-0.34261 0,-0.18139 0.05116,-0.33021 0.05116,-0.15038 0.147278,-0.25735 0.09612,-0.10852 0.234095,-0.16743 0.137976,-0.0605 0.313159,-0.0605 0.167431,0 0.299206,0.0527 0.133325,0.0512 0.224793,0.15193 0.09302,0.0992 0.141076,0.24805 0.04961,0.14883 0.04961,0.34106 z m -0.275952,0.0124 q 0,-0.14418 -0.03256,-0.25115 -0.03101,-0.10852 -0.08992,-0.17984 -0.05891,-0.0729 -0.144177,-0.10852 -0.08372,-0.0372 -0.187585,-0.0372 -0.120923,0 -0.207739,0.0481 -0.08527,0.0465 -0.141077,0.12557 -0.05426,0.0791 -0.08062,0.18448 -0.02481,0.10387 -0.02481,0.2186 0,0.14417 0.03101,0.25269 0.03256,0.10852 0.09147,0.18139 0.05891,0.0713 0.142627,0.10852 0.08372,0.0357 0.189136,0.0357 0.120923,0 0.206189,-0.0465 0.08682,-0.0481 0.141076,-0.12713 0.05581,-0.0791 0.08062,-0.18293 0.02635,-0.10542 0.02635,-0.22169 z"
         style="stroke-width:0.264583"
         id="path6490" />
      <path
         d="m 79.455981,113.42368 h -0.241845 l -0.0093,-0.25114 q -0.06976,0.0806 -0.133325,0.13487 -0.06201,0.0527 -0.124024,0.0853 -0.06201,0.0326 -0.125573,0.045 -0.06201,0.0139 -0.131775,0.0139 -0.240296,0 -0.362769,-0.14108 -0.122473,-0.14108 -0.122473,-0.42633 v -1.01699 h 0.269751 v 0.99529 q 0,0.35811 0.269751,0.35811 0.04961,0 0.09612,-0.014 0.04806,-0.0155 0.09922,-0.0512 0.05271,-0.0372 0.111621,-0.0992 0.06046,-0.062 0.134875,-0.15658 v -1.03249 h 0.269751 z"
         style="stroke-width:0.264583"
         id="path6492" />
      <path
         d="m 81.204712,113.40198 q -0.09147,0.0233 -0.189135,0.0326 -0.09767,0.0109 -0.198438,0.0109 -0.293005,0 -0.437183,-0.13178 -0.144177,-0.13332 -0.144177,-0.40772 v -0.81236 h -0.435632 v -0.22634 h 0.435632 v -0.42788 l 0.269751,-0.0698 v 0.49765 h 0.699182 v 0.22634 H 80.50553 v 0.79065 q 0,0.16743 0.08837,0.25115 0.08992,0.0822 0.26355,0.0822 0.07441,0 0.16278,-0.0109 0.08837,-0.0124 0.184485,-0.0372 z"
         style="stroke-width:0.264583"
         id="path6494" />
      <path
         d="m 83.026307,112.61753 q 0,0.20774 -0.05891,0.36277 -0.05736,0.15503 -0.15968,0.25735 -0.10232,0.10232 -0.241846,0.15348 -0.139526,0.0512 -0.302307,0.0512 -0.07441,0 -0.148828,-0.008 -0.07286,-0.008 -0.148828,-0.0264 v 0.65112 h -0.269751 v -2.19211 h 0.240295 l 0.01705,0.26045 q 0.116272,-0.15968 0.248047,-0.22324 0.131775,-0.0651 0.285254,-0.0651 0.133325,0 0.234094,0.0558 0.100769,0.0558 0.168982,0.15813 0.06821,0.10077 0.102319,0.24495 0.03411,0.14263 0.03411,0.31936 z m -0.275952,0.0124 q 0,-0.12247 -0.0186,-0.22479 -0.01705,-0.10232 -0.05581,-0.17518 -0.03876,-0.0729 -0.09922,-0.11317 -0.06046,-0.0419 -0.144177,-0.0419 -0.05116,0 -0.10387,0.0171 -0.05271,0.0155 -0.110071,0.0543 -0.05581,0.0372 -0.119372,0.10077 -0.06201,0.062 -0.133325,0.15503 v 0.75499 q 0.07441,0.031 0.156579,0.0496 0.08217,0.0171 0.161231,0.0171 0.218591,0 0.342614,-0.14728 0.124024,-0.14883 0.124024,-0.44649 z"
         style="stroke-width:0.264583"
         id="path6496" />
      <path
         d="m 84.69287,113.42368 h -0.241845 l -0.0093,-0.25114 q -0.06976,0.0806 -0.133325,0.13487 -0.06201,0.0527 -0.124024,0.0853 -0.06201,0.0326 -0.125574,0.045 -0.06201,0.0139 -0.131774,0.0139 -0.240296,0 -0.362769,-0.14108 -0.122473,-0.14108 -0.122473,-0.42633 v -1.01699 h 0.269751 v 0.99529 q 0,0.35811 0.269751,0.35811 0.04961,0 0.09612,-0.014 0.04806,-0.0155 0.09922,-0.0512 0.05271,-0.0372 0.111621,-0.0992 0.06046,-0.062 0.134875,-0.15658 v -1.03249 h 0.269751 z"
         style="stroke-width:0.264583"
         id="path6498" />
      <path
         d="m 86.441603,113.40198 q -0.09147,0.0233 -0.189136,0.0326 -0.09767,0.0109 -0.198437,0.0109 -0.293006,0 -0.437183,-0.13178 -0.144177,-0.13332 -0.144177,-0.40772 v -0.81236 h -0.435632 v -0.22634 h 0.435632 v -0.42788 l 0.269751,-0.0698 v 0.49765 h 0.699182 v 0.22634 h -0.699182 v 0.79065 q 0,0.16743 0.08837,0.25115 0.08992,0.0822 0.263549,0.0822 0.07442,0 0.162781,-0.0109 0.08837,-0.0124 0.184485,-0.0372 z"
         style="stroke-width:0.264583"
         id="path6500" />
      <path
         d="m 87.86477,114.07481 q -0.714685,-0.66198 -0.714685,-1.46348 0,-0.18759 0.03721,-0.37362 0.03876,-0.18759 0.122474,-0.37517 0.08527,-0.18759 0.223242,-0.37517 0.139526,-0.18759 0.337964,-0.37207 l 0.156579,0.15968 q -0.601513,0.59376 -0.601513,1.3162 0,0.35966 0.151928,0.69143 0.151929,0.33176 0.449585,0.62631 z"
         style="stroke-width:0.264583"
         id="path6502" />
      <path
         d="m 89.911156,112.9989 q 0,0.0822 -0.02791,0.14728 -0.02791,0.0651 -0.07596,0.11627 -0.04806,0.0496 -0.111621,0.0853 -0.06356,0.0357 -0.136426,0.0589 -0.07131,0.0232 -0.147278,0.0341 -0.07596,0.0108 -0.148828,0.0108 -0.15813,0 -0.291455,-0.0139 -0.131775,-0.014 -0.258899,-0.045 v -0.24805 q 0.136426,0.0388 0.271301,0.0589 0.134876,0.0202 0.268201,0.0202 0.193787,0 0.286804,-0.0527 0.09302,-0.0527 0.09302,-0.15038 0,-0.0419 -0.0155,-0.0744 -0.01395,-0.0341 -0.05271,-0.0636 -0.03876,-0.031 -0.120923,-0.0636 -0.08061,-0.0326 -0.221692,-0.0744 -0.10542,-0.031 -0.195337,-0.0698 -0.08837,-0.0403 -0.153479,-0.0946 -0.06511,-0.0543 -0.102319,-0.12712 -0.03721,-0.0729 -0.03721,-0.17208 0,-0.0651 0.02946,-0.14263 0.03101,-0.0775 0.103869,-0.14418 0.07286,-0.0667 0.196887,-0.11007 0.124024,-0.045 0.310059,-0.045 0.09147,0 0.203088,0.0109 0.111621,0.009 0.232544,0.0341 v 0.2403 q -0.127124,-0.031 -0.241845,-0.045 -0.113172,-0.0155 -0.196888,-0.0155 -0.100769,0 -0.170532,0.0155 -0.06821,0.0155 -0.111621,0.0434 -0.04186,0.0263 -0.06046,0.0636 -0.0186,0.0357 -0.0186,0.0775 0,0.0419 0.0155,0.076 0.01705,0.0341 0.06046,0.0667 0.04496,0.031 0.124023,0.0636 0.07906,0.031 0.206189,0.0682 0.137976,0.0403 0.232544,0.0853 0.09457,0.0434 0.153479,0.0977 0.05891,0.0543 0.08372,0.12247 0.02636,0.0682 0.02636,0.15503 z"
         style="fill:#0000ff"
         id="path6504" />
      <path
         d="m 91.678492,113.40198 q -0.09147,0.0233 -0.189136,0.0326 -0.09767,0.0109 -0.198437,0.0109 -0.293006,0 -0.437183,-0.13178 -0.144177,-0.13332 -0.144177,-0.40772 v -0.81236 h -0.435632 v -0.22634 h 0.435632 v -0.42788 l 0.269751,-0.0698 v 0.49765 h 0.699182 v 0.22634 H 90.97931 v 0.79065 q 0,0.16743 0.08837,0.25115 0.08992,0.0822 0.263549,0.0822 0.07441,0 0.162781,-0.0109 0.08837,-0.0124 0.184485,-0.0372 z"
         style="fill:#0000ff"
         id="path6506" />
      <path
         d="m 92.233495,111.86719 h 0.246497 l 0.0078,0.2868 q 0.137976,-0.16588 0.271302,-0.24029 0.134875,-0.0744 0.271301,-0.0744 0.241846,0 0.365869,0.15658 0.125574,0.15658 0.116272,0.46509 h -0.272852 q 0.0047,-0.20464 -0.06046,-0.2961 -0.06356,-0.093 -0.187585,-0.093 -0.05426,0 -0.110071,0.0202 -0.05426,0.0186 -0.113172,0.062 -0.05736,0.0419 -0.122473,0.10852 -0.06511,0.0667 -0.139526,0.16123 v 0.99994 h -0.272852 z"
         style="fill:#0000ff"
         id="path6508" />
      <path
         d="m 95.166652,113.42368 h -0.241846 l -0.0093,-0.25114 q -0.06976,0.0806 -0.133325,0.13487 -0.06201,0.0527 -0.124023,0.0853 -0.06201,0.0326 -0.125574,0.045 -0.06201,0.0139 -0.131775,0.0139 -0.240295,0 -0.362768,-0.14108 -0.122474,-0.14108 -0.122474,-0.42633 v -1.01699 h 0.269751 v 0.99529 q 0,0.35811 0.269751,0.35811 0.04961,0 0.09612,-0.014 0.04806,-0.0155 0.09922,-0.0512 0.05271,-0.0372 0.111621,-0.0992 0.06046,-0.062 0.134876,-0.15658 v -1.03249 h 0.269751 z"
         style="fill:#0000ff"
         id="path6510" />
      <path
         d="m 96.870422,113.36632 q -0.10542,0.0403 -0.217041,0.0589 -0.11007,0.0202 -0.227893,0.0202 -0.368969,0 -0.568957,-0.19999 -0.198438,-0.19999 -0.198438,-0.58446 0,-0.18449 0.05736,-0.33486 0.05736,-0.15038 0.161231,-0.25735 0.103869,-0.10697 0.248046,-0.16433 0.144178,-0.0589 0.31781,-0.0589 0.120923,0 0.226343,0.0171 0.10542,0.017 0.201538,0.0558 v 0.25735 q -0.100769,-0.0527 -0.206189,-0.076 -0.103869,-0.0248 -0.21549,-0.0248 -0.10387,0 -0.196888,0.0403 -0.09147,0.0387 -0.16123,0.11317 -0.06976,0.0744 -0.110071,0.18138 -0.04031,0.10697 -0.04031,0.24185 0,0.28215 0.136425,0.42323 0.137976,0.13952 0.381372,0.13952 0.110071,0 0.212391,-0.0248 0.103869,-0.0248 0.199987,-0.0744 z"
         style="fill:#0000ff"
         id="path6512" />
      <path
         d="m 98.661009,113.40198 q -0.09147,0.0233 -0.189136,0.0326 -0.09767,0.0109 -0.198437,0.0109 -0.293005,0 -0.437183,-0.13178 -0.144177,-0.13332 -0.144177,-0.40772 v -0.81236 h -0.435632 v -0.22634 h 0.435632 v -0.42788 l 0.269751,-0.0698 v 0.49765 h 0.699182 v 0.22634 h -0.699182 v 0.79065 q 0,0.16743 0.08837,0.25115 0.08992,0.0822 0.26355,0.0822 0.07441,0 0.16278,-0.0109 0.08837,-0.0124 0.184485,-0.0372 z"
         style="fill:#0000ff"
         id="path6514" />
      <path
         d="m 102.01894,112.08733 q 0.0434,0.0543 0.0667,0.12712 0.0248,0.0713 0.0248,0.15503 0,0.12093 -0.045,0.2217 -0.0434,0.0992 -0.12402,0.17053 -0.0806,0.0713 -0.19379,0.11162 -0.11162,0.0388 -0.24649,0.0388 -0.0977,0 -0.18294,-0.0202 -0.0853,-0.0217 -0.13487,-0.0527 -0.0295,0.0434 -0.0496,0.0822 -0.0202,0.0388 -0.0202,0.0868 0,0.0589 0.0558,0.0977 0.0574,0.0388 0.15038,0.0419 l 0.40928,0.0155 q 0.11627,0.003 0.21394,0.0295 0.0992,0.0264 0.16898,0.076 0.0713,0.0496 0.11007,0.12248 0.0403,0.0729 0.0403,0.16898 0,0.10387 -0.045,0.19689 -0.045,0.093 -0.13952,0.16278 -0.093,0.0713 -0.2372,0.11317 -0.14418,0.0419 -0.34261,0.0419 -0.18914,0 -0.32246,-0.031 -0.13178,-0.0295 -0.21705,-0.0837 -0.0853,-0.0527 -0.12402,-0.12712 -0.0388,-0.0729 -0.0388,-0.16123 0,-0.11317 0.0527,-0.19844 0.0527,-0.0853 0.16278,-0.16433 -0.0403,-0.0186 -0.0698,-0.0465 -0.0294,-0.0279 -0.0481,-0.0605 -0.0186,-0.0341 -0.0279,-0.0713 -0.009,-0.0372 -0.009,-0.0729 0,-0.10077 0.0465,-0.18448 0.0481,-0.0837 0.11317,-0.15813 -0.0294,-0.0357 -0.0527,-0.0698 -0.0217,-0.0341 -0.0388,-0.0729 -0.0155,-0.0403 -0.0248,-0.0853 -0.008,-0.0465 -0.008,-0.10542 0,-0.12093 0.0434,-0.22015 0.045,-0.10076 0.12402,-0.17208 0.0806,-0.0713 0.19224,-0.11007 0.11317,-0.0403 0.2496,-0.0403 0.0574,0 0.11007,0.008 0.0527,0.008 0.093,0.0201 h 0.5643 v 0.22014 z m -0.93637,1.56115 q 0,0.11007 0.11472,0.15968 0.11472,0.0512 0.31936,0.0512 0.12867,0 0.21549,-0.0233 0.0884,-0.0233 0.14108,-0.062 0.0543,-0.0372 0.0775,-0.0868 0.0233,-0.0481 0.0233,-0.0992 0,-0.0946 -0.0775,-0.13952 -0.0775,-0.045 -0.23719,-0.0527 l -0.40618,-0.014 q -0.0512,0.0341 -0.0853,0.0667 -0.0326,0.0325 -0.0512,0.0651 -0.0186,0.0341 -0.0263,0.0667 -0.008,0.0341 -0.008,0.0682 z m 0.0822,-1.2728 q 0,0.0744 0.0248,0.13643 0.0248,0.062 0.0698,0.10542 0.045,0.0434 0.10542,0.0682 0.062,0.0233 0.13643,0.0233 0.0806,0 0.14262,-0.0264 0.0636,-0.0279 0.10542,-0.0744 0.0434,-0.0465 0.0651,-0.10697 0.0232,-0.0605 0.0232,-0.12558 0,-0.0744 -0.0248,-0.13642 -0.0248,-0.062 -0.0698,-0.10542 -0.045,-0.0434 -0.10697,-0.0667 -0.0605,-0.0248 -0.13487,-0.0248 -0.0806,0 -0.14418,0.0279 -0.062,0.0279 -0.10542,0.0744 -0.0419,0.045 -0.0651,0.10542 -0.0217,0.0605 -0.0217,0.12557 z"
         style="stroke-width:0.264583"
         id="path6516" />
      <path
         d="m 102.70728,111.86719 h 0.24649 l 0.008,0.2868 q 0.13798,-0.16588 0.27131,-0.24029 0.13487,-0.0744 0.2713,-0.0744 0.24184,0 0.36587,0.15658 0.12557,0.15658 0.11627,0.46509 h -0.27285 q 0.005,-0.20464 -0.0605,-0.2961 -0.0636,-0.093 -0.18759,-0.093 -0.0543,0 -0.11007,0.0202 -0.0543,0.0186 -0.11317,0.062 -0.0574,0.0419 -0.12248,0.10852 -0.0651,0.0667 -0.13952,0.16123 v 0.99994 h -0.27285 z"
         style="stroke-width:0.264583"
         id="path6518" />
      <path
         d="m 105.70399,112.56327 q 0,0.0574 -0.002,0.0961 -0.002,0.0388 -0.005,0.0729 h -1.09296 q 0,0.23875 0.13333,0.36742 0.13332,0.12713 0.38447,0.12713 0.0682,0 0.13643,-0.005 0.0682,-0.006 0.13177,-0.0155 0.0636,-0.009 0.12093,-0.0201 0.0589,-0.0124 0.10852,-0.0264 v 0.2217 q -0.11007,0.031 -0.2496,0.0496 -0.13798,0.0202 -0.28681,0.0202 -0.19998,0 -0.34416,-0.0543 -0.14418,-0.0543 -0.2372,-0.15658 -0.0915,-0.10387 -0.13642,-0.2527 -0.0434,-0.15038 -0.0434,-0.33951 0,-0.16433 0.0465,-0.31006 0.0481,-0.14728 0.13798,-0.25735 0.0915,-0.11162 0.22324,-0.17673 0.13177,-0.0651 0.2992,-0.0651 0.16279,0 0.28836,0.0512 0.12557,0.0512 0.21084,0.14573 0.0868,0.093 0.13022,0.22789 0.045,0.13333 0.045,0.29921 z m -0.2806,-0.0388 q 0.005,-0.10387 -0.0202,-0.18913 -0.0248,-0.0868 -0.0775,-0.14883 -0.0512,-0.062 -0.12867,-0.0961 -0.0775,-0.0357 -0.17984,-0.0357 -0.0884,0 -0.16123,0.0341 -0.0729,0.0341 -0.12557,0.0961 -0.0527,0.062 -0.0853,0.14883 -0.0326,0.0868 -0.0403,0.19068 z"
         style="stroke-width:0.264583"
         id="path6520" />
      <path
         d="m 107.46512,112.61753 q 0,0.20774 -0.0589,0.36277 -0.0574,0.15503 -0.15968,0.25735 -0.10232,0.10232 -0.24184,0.15348 -0.13953,0.0512 -0.30231,0.0512 -0.0744,0 -0.14883,-0.008 -0.0729,-0.008 -0.14883,-0.0264 v 0.65112 h -0.26975 v -2.19211 h 0.2403 l 0.017,0.26045 q 0.11627,-0.15968 0.24805,-0.22324 0.13177,-0.0651 0.28525,-0.0651 0.13333,0 0.2341,0.0558 0.10076,0.0558 0.16898,0.15813 0.0682,0.10077 0.10232,0.24495 0.0341,0.14263 0.0341,0.31936 z m -0.27595,0.0124 q 0,-0.12247 -0.0186,-0.22479 -0.0171,-0.10232 -0.0558,-0.17518 -0.0388,-0.0729 -0.0992,-0.11317 -0.0605,-0.0419 -0.14418,-0.0419 -0.0512,0 -0.10387,0.0171 -0.0527,0.0155 -0.11007,0.0543 -0.0558,0.0372 -0.11937,0.10077 -0.062,0.062 -0.13333,0.15503 v 0.75499 q 0.0744,0.031 0.15658,0.0496 0.0822,0.0171 0.16123,0.0171 0.21859,0 0.34262,-0.14728 0.12402,-0.14883 0.12402,-0.44649 z"
         style="stroke-width:0.264583"
         id="path6522" />
      <path
         d="m 109.37819,114.0593 h -1.74563 v -0.22324 h 1.74563 z"
         style="stroke-width:0.264583"
         id="path6524" />
      <path
         d="m 110.98119,112.63303 q 0,0.18139 -0.0512,0.33332 -0.0512,0.15037 -0.14728,0.2589 -0.0961,0.10697 -0.23409,0.16743 -0.13798,0.0589 -0.31316,0.0589 -0.16743,0 -0.30076,-0.0512 -0.13177,-0.0527 -0.22479,-0.15348 -0.0915,-0.10077 -0.14108,-0.2496 -0.0481,-0.14883 -0.0481,-0.34261 0,-0.18139 0.0512,-0.33021 0.0512,-0.15038 0.14728,-0.25735 0.0961,-0.10852 0.23409,-0.16743 0.13798,-0.0605 0.31316,-0.0605 0.16743,0 0.29921,0.0527 0.13332,0.0512 0.22479,0.15193 0.093,0.0992 0.14108,0.24805 0.0496,0.14883 0.0496,0.34106 z m -0.27595,0.0124 q 0,-0.14418 -0.0326,-0.25115 -0.031,-0.10852 -0.0899,-0.17984 -0.0589,-0.0729 -0.14417,-0.10852 -0.0837,-0.0372 -0.18759,-0.0372 -0.12092,0 -0.20774,0.0481 -0.0853,0.0465 -0.14108,0.12557 -0.0543,0.0791 -0.0806,0.18448 -0.0248,0.10387 -0.0248,0.2186 0,0.14417 0.031,0.25269 0.0326,0.10852 0.0915,0.18139 0.0589,0.0713 0.14262,0.10852 0.0837,0.0357 0.18914,0.0357 0.12092,0 0.20619,-0.0465 0.0868,-0.0481 0.14108,-0.12713 0.0558,-0.0791 0.0806,-0.18293 0.0264,-0.10542 0.0264,-0.22169 z"
         style="stroke-width:0.264583"
         id="path6526" />
      <path
         d="m 112.70202,112.61753 q 0,0.20774 -0.0589,0.36277 -0.0574,0.15503 -0.15968,0.25735 -0.10231,0.10232 -0.24184,0.15348 -0.13953,0.0512 -0.30231,0.0512 -0.0744,0 -0.14883,-0.008 -0.0729,-0.008 -0.14882,-0.0264 v 0.65112 h -0.26976 v -2.19211 h 0.2403 l 0.017,0.26045 q 0.11627,-0.15968 0.24805,-0.22324 0.13177,-0.0651 0.28525,-0.0651 0.13333,0 0.2341,0.0558 0.10077,0.0558 0.16898,0.15813 0.0682,0.10077 0.10232,0.24495 0.0341,0.14263 0.0341,0.31936 z m -0.27596,0.0124 q 0,-0.12247 -0.0186,-0.22479 -0.017,-0.10232 -0.0558,-0.17518 -0.0388,-0.0729 -0.0992,-0.11317 -0.0605,-0.0419 -0.14418,-0.0419 -0.0512,0 -0.10387,0.0171 -0.0527,0.0155 -0.11007,0.0543 -0.0558,0.0372 -0.11937,0.10077 -0.062,0.062 -0.13332,0.15503 v 0.75499 q 0.0744,0.031 0.15657,0.0496 0.0822,0.0171 0.16124,0.0171 0.21859,0 0.34261,-0.14728 0.12402,-0.14883 0.12402,-0.44649 z"
         style="stroke-width:0.264583"
         id="path6528" />
      <path
         d="m 114.37168,113.40198 q -0.0915,0.0233 -0.18913,0.0326 -0.0977,0.0109 -0.19844,0.0109 -0.29301,0 -0.43718,-0.13178 -0.14418,-0.13332 -0.14418,-0.40772 v -0.81236 h -0.43563 v -0.22634 h 0.43563 v -0.42788 l 0.26975,-0.0698 v 0.49765 h 0.69918 v 0.22634 h -0.69918 v 0.79065 q 0,0.16743 0.0884,0.25115 0.0899,0.0822 0.26355,0.0822 0.0744,0 0.16278,-0.0109 0.0884,-0.0124 0.18448,-0.0372 z"
         style="stroke-width:0.264583"
         id="path6530" />
      <path
         d="m 117.85054,112.12144 -0.10542,0.18448 -0.43563,-0.28835 0.0357,0.5302 h -0.22169 l 0.0341,-0.5302 -0.44494,0.28835 -0.0977,-0.18138 0.47594,-0.2341 -0.47594,-0.23874 0.10697,-0.18139 0.43874,0.29301 -0.0372,-0.5302 h 0.22169 l -0.0388,0.5302 0.43873,-0.29611 0.10852,0.19069 -0.47749,0.23564 z"
         style="stroke-width:0.264583"
         id="path6532" />
      <path
         d="m 119.70934,112.63303 q 0,0.18139 -0.0512,0.33332 -0.0512,0.15037 -0.14728,0.2589 -0.0961,0.10697 -0.23409,0.16743 -0.13798,0.0589 -0.31316,0.0589 -0.16743,0 -0.30076,-0.0512 -0.13178,-0.0527 -0.22479,-0.15348 -0.0915,-0.10077 -0.14108,-0.2496 -0.0481,-0.14883 -0.0481,-0.34261 0,-0.18139 0.0512,-0.33021 0.0512,-0.15038 0.14728,-0.25735 0.0961,-0.10852 0.23409,-0.16743 0.13798,-0.0605 0.31316,-0.0605 0.16743,0 0.29921,0.0527 0.13332,0.0512 0.22479,0.15193 0.093,0.0992 0.14108,0.24805 0.0496,0.14883 0.0496,0.34106 z m -0.27595,0.0124 q 0,-0.14418 -0.0326,-0.25115 -0.031,-0.10852 -0.0899,-0.17984 -0.0589,-0.0729 -0.14417,-0.10852 -0.0837,-0.0372 -0.18759,-0.0372 -0.12092,0 -0.20774,0.0481 -0.0853,0.0465 -0.14108,0.12557 -0.0543,0.0791 -0.0806,0.18448 -0.0248,0.10387 -0.0248,0.2186 0,0.14417 0.031,0.25269 0.0326,0.10852 0.0915,0.18139 0.0589,0.0713 0.14262,0.10852 0.0837,0.0357 0.18914,0.0357 0.12092,0 0.20619,-0.0465 0.0868,-0.0481 0.14108,-0.12713 0.0558,-0.0791 0.0806,-0.18293 0.0264,-0.10542 0.0264,-0.22169 z"
         style="stroke-width:0.264583"
         id="path6534" />
      <path
         d="m 121.43016,112.61753 q 0,0.20774 -0.0589,0.36277 -0.0574,0.15503 -0.15968,0.25735 -0.10232,0.10232 -0.24185,0.15348 -0.13952,0.0512 -0.3023,0.0512 -0.0744,0 -0.14883,-0.008 -0.0729,-0.008 -0.14883,-0.0264 v 0.65112 h -0.26975 v -2.19211 h 0.2403 l 0.017,0.26045 q 0.11627,-0.15968 0.24805,-0.22324 0.13177,-0.0651 0.28525,-0.0651 0.13332,0 0.23409,0.0558 0.10077,0.0558 0.16899,0.15813 0.0682,0.10077 0.10231,0.24495 0.0341,0.14263 0.0341,0.31936 z m -0.27595,0.0124 q 0,-0.12247 -0.0186,-0.22479 -0.0171,-0.10232 -0.0558,-0.17518 -0.0388,-0.0729 -0.0992,-0.11317 -0.0605,-0.0419 -0.14418,-0.0419 -0.0512,0 -0.10387,0.0171 -0.0527,0.0155 -0.11007,0.0543 -0.0558,0.0372 -0.11937,0.10077 -0.062,0.062 -0.13333,0.15503 v 0.75499 q 0.0744,0.031 0.15658,0.0496 0.0822,0.0171 0.16123,0.0171 0.21859,0 0.34262,-0.14728 0.12402,-0.14883 0.12402,-0.44649 z"
         style="stroke-width:0.264583"
         id="path6536" />
      <path
         d="m 123.09983,113.40198 q -0.0915,0.0233 -0.18913,0.0326 -0.0977,0.0109 -0.19844,0.0109 -0.29301,0 -0.43718,-0.13178 -0.14418,-0.13332 -0.14418,-0.40772 v -0.81236 h -0.43563 v -0.22634 h 0.43563 v -0.42788 l 0.26975,-0.0698 v 0.49765 h 0.69918 v 0.22634 h -0.69918 v 0.79065 q 0,0.16743 0.0884,0.25115 0.0899,0.0822 0.26355,0.0822 0.0744,0 0.16278,-0.0109 0.0884,-0.0124 0.18448,-0.0372 z"
         style="stroke-width:0.264583"
         id="path6538" />
      <path
         d="m 123.7122,113.74149 q 0.0791,0.003 0.15348,-0.0139 0.0744,-0.0171 0.13022,-0.0512 0.0574,-0.0326 0.0915,-0.0822 0.0341,-0.0496 0.0341,-0.11318 0,-0.0651 -0.0233,-0.10542 -0.0217,-0.0403 -0.0496,-0.0744 -0.0279,-0.0341 -0.0512,-0.0729 -0.0217,-0.0388 -0.0217,-0.10387 0,-0.0326 0.0124,-0.0682 0.0124,-0.0356 0.0372,-0.0651 0.0263,-0.0295 0.0651,-0.0481 0.0403,-0.0186 0.0946,-0.0186 0.0543,0 0.10387,0.0232 0.0512,0.0217 0.0884,0.0682 0.0388,0.0465 0.0605,0.11627 0.0233,0.0698 0.0233,0.16433 0,0.12867 -0.0481,0.2465 -0.0465,0.11937 -0.14108,0.21084 -0.093,0.0915 -0.23409,0.14572 -0.13953,0.0543 -0.32556,0.0543 z"
         style="stroke-width:0.264583"
         id="path6540" />
      <path
         d="m 128.29176,113.36632 q -0.10542,0.0403 -0.21704,0.0589 -0.11007,0.0202 -0.22789,0.0202 -0.36897,0 -0.56896,-0.19999 -0.19844,-0.19999 -0.19844,-0.58446 0,-0.18449 0.0574,-0.33486 0.0574,-0.15038 0.16123,-0.25735 0.10387,-0.10697 0.24805,-0.16433 0.14418,-0.0589 0.31781,-0.0589 0.12092,0 0.22634,0.0171 0.10542,0.017 0.20154,0.0558 v 0.25735 q -0.10077,-0.0527 -0.20619,-0.076 -0.10387,-0.0248 -0.21549,-0.0248 -0.10387,0 -0.19689,0.0403 -0.0915,0.0387 -0.16123,0.11317 -0.0698,0.0744 -0.11007,0.18138 -0.0403,0.10697 -0.0403,0.24185 0,0.28215 0.13643,0.42323 0.13798,0.13952 0.38137,0.13952 0.11007,0 0.21239,-0.0248 0.10387,-0.0248 0.19999,-0.0744 z"
         style="fill:#008000"
         id="path6542" />
      <path
         d="m 130.18312,112.63303 q 0,0.18139 -0.0512,0.33332 -0.0512,0.15037 -0.14728,0.2589 -0.0961,0.10697 -0.2341,0.16743 -0.13797,0.0589 -0.31316,0.0589 -0.16743,0 -0.30075,-0.0512 -0.13178,-0.0527 -0.22479,-0.15348 -0.0915,-0.10077 -0.14108,-0.2496 -0.0481,-0.14883 -0.0481,-0.34261 0,-0.18139 0.0512,-0.33021 0.0512,-0.15038 0.14728,-0.25735 0.0961,-0.10852 0.23409,-0.16743 0.13798,-0.0605 0.31316,-0.0605 0.16743,0 0.29921,0.0527 0.13332,0.0512 0.22479,0.15193 0.093,0.0992 0.14108,0.24805 0.0496,0.14883 0.0496,0.34106 z m -0.27596,0.0124 q 0,-0.14418 -0.0326,-0.25115 -0.031,-0.10852 -0.0899,-0.17984 -0.0589,-0.0729 -0.14418,-0.10852 -0.0837,-0.0372 -0.18758,-0.0372 -0.12093,0 -0.20774,0.0481 -0.0853,0.0465 -0.14108,0.12557 -0.0543,0.0791 -0.0806,0.18448 -0.0248,0.10387 -0.0248,0.2186 0,0.14417 0.031,0.25269 0.0326,0.10852 0.0915,0.18139 0.0589,0.0713 0.14263,0.10852 0.0837,0.0357 0.18914,0.0357 0.12092,0 0.20619,-0.0465 0.0868,-0.0481 0.14107,-0.12713 0.0558,-0.0791 0.0806,-0.18293 0.0264,-0.10542 0.0264,-0.22169 z"
         style="fill:#008000"
         id="path6544" />
      <path
         d="m 130.5738,111.86719 h 0.24029 l 0.0109,0.25115 q 0.0682,-0.0806 0.13178,-0.13333 0.0636,-0.0543 0.12402,-0.0868 0.062,-0.0326 0.12557,-0.045 0.0636,-0.014 0.13178,-0.014 0.2403,0 0.36277,0.14263 0.12402,0.14108 0.12402,0.42633 v 1.01544 h -0.26975 v -0.99373 q 0,-0.18294 -0.0682,-0.26976 -0.0682,-0.0884 -0.20309,-0.0884 -0.0496,0 -0.0977,0.0155 -0.0465,0.014 -0.0977,0.0512 -0.0512,0.0357 -0.11162,0.0977 -0.0589,0.062 -0.13332,0.15503 v 1.03249 h -0.26975 z"
         style="fill:#008000"
         id="path6546" />
      <path
         d="m 133.55191,112.9989 q 0,0.0822 -0.0279,0.14728 -0.0279,0.0651 -0.076,0.11627 -0.0481,0.0496 -0.11162,0.0853 -0.0636,0.0357 -0.13643,0.0589 -0.0713,0.0232 -0.14728,0.0341 -0.076,0.0108 -0.14883,0.0108 -0.15813,0 -0.29145,-0.0139 -0.13178,-0.014 -0.2589,-0.045 v -0.24805 q 0.13643,0.0388 0.2713,0.0589 0.13488,0.0202 0.2682,0.0202 0.19379,0 0.28681,-0.0527 0.093,-0.0527 0.093,-0.15038 0,-0.0419 -0.0155,-0.0744 -0.0139,-0.0341 -0.0527,-0.0636 -0.0388,-0.031 -0.12092,-0.0636 -0.0806,-0.0326 -0.22169,-0.0744 -0.10542,-0.031 -0.19534,-0.0698 -0.0884,-0.0403 -0.15348,-0.0946 -0.0651,-0.0543 -0.10232,-0.12712 -0.0372,-0.0729 -0.0372,-0.17208 0,-0.0651 0.0295,-0.14263 0.031,-0.0775 0.10387,-0.14418 0.0729,-0.0667 0.19689,-0.11007 0.12402,-0.045 0.31005,-0.045 0.0915,0 0.20309,0.0109 0.11162,0.009 0.23255,0.0341 v 0.2403 q -0.12713,-0.031 -0.24185,-0.045 -0.11317,-0.0155 -0.19689,-0.0155 -0.10076,0 -0.17053,0.0155 -0.0682,0.0155 -0.11162,0.0434 -0.0419,0.0263 -0.0605,0.0636 -0.0186,0.0357 -0.0186,0.0775 0,0.0419 0.0155,0.076 0.017,0.0341 0.0605,0.0667 0.045,0.031 0.12402,0.0636 0.0791,0.031 0.20619,0.0682 0.13798,0.0403 0.23255,0.0853 0.0946,0.0434 0.15348,0.0977 0.0589,0.0543 0.0837,0.12247 0.0264,0.0682 0.0264,0.15503 z"
         style="fill:#008000"
         id="path6548" />
      <path
         d="m 135.31924,113.40198 q -0.0915,0.0233 -0.18914,0.0326 -0.0977,0.0109 -0.19843,0.0109 -0.29301,0 -0.43719,-0.13178 -0.14417,-0.13332 -0.14417,-0.40772 v -0.81236 h -0.43564 v -0.22634 h 0.43564 v -0.42788 l 0.26975,-0.0698 v 0.49765 h 0.69918 v 0.22634 h -0.69918 v 0.79065 q 0,0.16743 0.0884,0.25115 0.0899,0.0822 0.26355,0.0822 0.0744,0 0.16278,-0.0109 0.0884,-0.0124 0.18449,-0.0372 z"
         style="fill:#008000"
         id="path6550" />
      <path
         d="m 137.41058,111.86719 h 0.30696 l 0.38137,1.02939 0.0822,0.25115 0.0853,-0.25735 0.37827,-1.02319 h 0.29611 l -0.61082,1.55649 h -0.31005 z"
         style="fill:#008000"
         id="path6552" />
      <path
         d="m 140.6569,112.63303 q 0,0.18139 -0.0512,0.33332 -0.0512,0.15037 -0.14728,0.2589 -0.0961,0.10697 -0.23409,0.16743 -0.13798,0.0589 -0.31316,0.0589 -0.16743,0 -0.30076,-0.0512 -0.13177,-0.0527 -0.22479,-0.15348 -0.0915,-0.10077 -0.14108,-0.2496 -0.0481,-0.14883 -0.0481,-0.34261 0,-0.18139 0.0512,-0.33021 0.0512,-0.15038 0.14728,-0.25735 0.0961,-0.10852 0.2341,-0.16743 0.13797,-0.0605 0.31316,-0.0605 0.16743,0 0.2992,0.0527 0.13333,0.0512 0.22479,0.15193 0.093,0.0992 0.14108,0.24805 0.0496,0.14883 0.0496,0.34106 z m -0.27595,0.0124 q 0,-0.14418 -0.0326,-0.25115 -0.031,-0.10852 -0.0899,-0.17984 -0.0589,-0.0729 -0.14418,-0.10852 -0.0837,-0.0372 -0.18759,-0.0372 -0.12092,0 -0.20774,0.0481 -0.0853,0.0465 -0.14107,0.12557 -0.0543,0.0791 -0.0806,0.18448 -0.0248,0.10387 -0.0248,0.2186 0,0.14417 0.031,0.25269 0.0326,0.10852 0.0915,0.18139 0.0589,0.0713 0.14263,0.10852 0.0837,0.0357 0.18913,0.0357 0.12093,0 0.20619,-0.0465 0.0868,-0.0481 0.14108,-0.12713 0.0558,-0.0791 0.0806,-0.18293 0.0264,-0.10542 0.0264,-0.22169 z"
         style="fill:#008000"
         id="path6554" />
      <path
         d="m 141.57777,112.09043 h -0.46043 v -0.22324 h 0.73328 v 1.3317 h 0.46354 v 0.22479 h -1.24798 v -0.22479 h 0.51159 z m 0.0946,-0.87591 q 0.045,0 0.0837,0.0171 0.0388,0.0155 0.0667,0.045 0.0295,0.0295 0.045,0.0682 0.017,0.0372 0.017,0.0822 0,0.0434 -0.017,0.0822 -0.0155,0.0388 -0.045,0.0682 -0.0279,0.0295 -0.0667,0.0465 -0.0388,0.0155 -0.0837,0.0155 -0.045,0 -0.0837,-0.0155 -0.0388,-0.017 -0.0682,-0.0465 -0.0279,-0.0294 -0.045,-0.0682 -0.0155,-0.0388 -0.0155,-0.0822 0,-0.045 0.0155,-0.0822 0.0171,-0.0388 0.045,-0.0682 0.0295,-0.0295 0.0682,-0.045 0.0387,-0.0171 0.0837,-0.0171 z"
         style="fill:#008000"
         id="path6556" />
      <path
         d="m 142.71414,112.67799 q 0,-0.19844 0.0543,-0.35191 0.0543,-0.15503 0.15348,-0.26045 0.10076,-0.10697 0.24029,-0.16123 0.14108,-0.0558 0.31316,-0.0558 0.0744,0 0.14573,0.009 0.0729,0.009 0.14262,0.0294 v -0.65422 h 0.27131 v 2.19056 h -0.24185 l -0.009,-0.29455 q -0.11317,0.16433 -0.24495,0.24339 -0.13177,0.0791 -0.28525,0.0791 -0.13333,0 -0.23565,-0.0558 -0.10077,-0.0558 -0.16898,-0.15658 -0.0667,-0.10232 -0.10077,-0.24495 -0.0341,-0.14263 -0.0341,-0.31626 z m 0.27595,-0.017 q 0,0.28215 0.0822,0.42168 0.0837,0.13797 0.23565,0.13797 0.10232,0 0.21549,-0.0915 0.11472,-0.0915 0.24029,-0.2713 v -0.72244 q -0.0667,-0.031 -0.14727,-0.0465 -0.0806,-0.017 -0.15968,-0.017 -0.22014,0 -0.34417,0.14262 -0.12247,0.14263 -0.12247,0.44649 z"
         style="fill:#008000"
         id="path6558" />
      <path
         d="m 147.52624,112.12144 -0.10542,0.18448 -0.43563,-0.28835 0.0357,0.5302 h -0.22169 l 0.0341,-0.5302 -0.44493,0.28835 -0.0977,-0.18138 0.47594,-0.2341 -0.47594,-0.23874 0.10697,-0.18139 0.43873,0.29301 -0.0372,-0.5302 h 0.22169 l -0.0388,0.5302 0.43873,-0.29611 0.10852,0.19069 -0.47749,0.23564 z"
         style="stroke-width:0.264583"
         id="path6560" />
      <path
         d="m 149.36025,112.61753 q 0,0.19379 -0.0543,0.34727 -0.0527,0.15192 -0.15193,0.2589 -0.0977,0.10542 -0.23875,0.16278 -0.14108,0.0558 -0.31781,0.0558 -0.13797,0 -0.28215,-0.0264 -0.14418,-0.0264 -0.28526,-0.0837 v -2.0991 h 0.26976 v 0.60306 l -0.0124,0.28836 q 0.11627,-0.15658 0.24805,-0.22014 0.13332,-0.0651 0.28525,-0.0651 0.13333,0 0.2341,0.0558 0.10077,0.0558 0.16898,0.15813 0.0682,0.10077 0.10232,0.24495 0.0341,0.14263 0.0341,0.31936 z m -0.27596,0.0124 q 0,-0.12247 -0.0186,-0.22479 -0.017,-0.10232 -0.0558,-0.17518 -0.0388,-0.0729 -0.0992,-0.11317 -0.0605,-0.0419 -0.14418,-0.0419 -0.0512,0 -0.10387,0.0171 -0.0527,0.0155 -0.11007,0.0543 -0.0558,0.0372 -0.11937,0.10077 -0.062,0.062 -0.13332,0.15503 v 0.75499 q 0.0791,0.031 0.16123,0.0496 0.0822,0.0171 0.15658,0.0171 0.093,0 0.17673,-0.0295 0.0853,-0.0295 0.14883,-0.0977 0.0651,-0.0698 0.10232,-0.18293 0.0388,-0.11473 0.0388,-0.28371 z"
         style="stroke-width:0.264583"
         id="path6562" />
      <path
         d="m 151.02681,113.42368 h -0.24185 l -0.009,-0.25114 q -0.0698,0.0806 -0.13332,0.13487 -0.062,0.0527 -0.12403,0.0853 -0.062,0.0326 -0.12557,0.045 -0.062,0.0139 -0.13178,0.0139 -0.24029,0 -0.36276,-0.14108 -0.12248,-0.14108 -0.12248,-0.42633 v -1.01699 h 0.26975 v 0.99529 q 0,0.35811 0.26975,0.35811 0.0496,0 0.0961,-0.014 0.0481,-0.0155 0.0992,-0.0512 0.0527,-0.0372 0.11162,-0.0992 0.0605,-0.062 0.13488,-0.15658 v -1.03249 h 0.26975 z"
         style="stroke-width:0.264583"
         id="path6564" />
      <path
         d="m 152.90266,111.48427 q -0.21239,-0.045 -0.36587,-0.045 -0.36432,0 -0.36432,0.38137 v 0.27285 h 0.68213 v 0.22479 h -0.68213 v 1.10536 h -0.2744 v -1.10536 h -0.50074 v -0.22479 h 0.50074 v -0.25735 q 0,-0.62166 0.64802,-0.62166 0.16123,0 0.35657,0.0372 z m -1.62936,0.38292 z"
         style="stroke-width:0.264583"
         id="path6566" />
      <path
         d="m 153.3879,113.74149 q 0.0791,0.003 0.15348,-0.0139 0.0744,-0.0171 0.13023,-0.0512 0.0574,-0.0326 0.0915,-0.0822 0.0341,-0.0496 0.0341,-0.11318 0,-0.0651 -0.0232,-0.10542 -0.0217,-0.0403 -0.0496,-0.0744 -0.0279,-0.0341 -0.0512,-0.0729 -0.0217,-0.0388 -0.0217,-0.10387 0,-0.0326 0.0124,-0.0682 0.0124,-0.0356 0.0372,-0.0651 0.0264,-0.0295 0.0651,-0.0481 0.0403,-0.0186 0.0946,-0.0186 0.0543,0 0.10387,0.0232 0.0512,0.0217 0.0884,0.0682 0.0388,0.0465 0.0605,0.11627 0.0232,0.0698 0.0232,0.16433 0,0.12867 -0.0481,0.2465 -0.0465,0.11937 -0.14107,0.21084 -0.093,0.0915 -0.2341,0.14572 -0.13952,0.0543 -0.32556,0.0543 z"
         style="stroke-width:0.264583"
         id="path6568" />
      <path
         d="m 157.99073,112.9989 q 0,0.0822 -0.0279,0.14728 -0.0279,0.0651 -0.076,0.11627 -0.0481,0.0496 -0.11162,0.0853 -0.0636,0.0357 -0.13643,0.0589 -0.0713,0.0232 -0.14728,0.0341 -0.076,0.0108 -0.14883,0.0108 -0.15813,0 -0.29145,-0.0139 -0.13178,-0.014 -0.2589,-0.045 v -0.24805 q 0.13643,0.0388 0.2713,0.0589 0.13488,0.0202 0.2682,0.0202 0.19379,0 0.28681,-0.0527 0.093,-0.0527 0.093,-0.15038 0,-0.0419 -0.0155,-0.0744 -0.0139,-0.0341 -0.0527,-0.0636 -0.0388,-0.031 -0.12092,-0.0636 -0.0806,-0.0326 -0.22169,-0.0744 -0.10542,-0.031 -0.19534,-0.0698 -0.0884,-0.0403 -0.15348,-0.0946 -0.0651,-0.0543 -0.10232,-0.12712 -0.0372,-0.0729 -0.0372,-0.17208 0,-0.0651 0.0295,-0.14263 0.031,-0.0775 0.10387,-0.14418 0.0729,-0.0667 0.19689,-0.11007 0.12402,-0.045 0.31005,-0.045 0.0915,0 0.20309,0.0109 0.11162,0.009 0.23255,0.0341 v 0.2403 q -0.12713,-0.031 -0.24185,-0.045 -0.11317,-0.0155 -0.19689,-0.0155 -0.10076,0 -0.17053,0.0155 -0.0682,0.0155 -0.11162,0.0434 -0.0419,0.0263 -0.0605,0.0636 -0.0186,0.0357 -0.0186,0.0775 0,0.0419 0.0155,0.076 0.0171,0.0341 0.0605,0.0667 0.045,0.031 0.12402,0.0636 0.0791,0.031 0.20619,0.0682 0.13798,0.0403 0.23255,0.0853 0.0946,0.0434 0.15348,0.0977 0.0589,0.0543 0.0837,0.12247 0.0264,0.0682 0.0264,0.15503 z"
         style="stroke-width:0.264583"
         id="path6570" />
      <path
         d="m 159.03407,112.09043 h -0.46043 v -0.22324 h 0.73328 v 1.3317 h 0.46354 v 0.22479 h -1.24798 v -0.22479 h 0.51159 z m 0.0946,-0.87591 q 0.045,0 0.0837,0.0171 0.0388,0.0155 0.0667,0.045 0.0294,0.0295 0.045,0.0682 0.017,0.0372 0.017,0.0822 0,0.0434 -0.017,0.0822 -0.0155,0.0388 -0.045,0.0682 -0.0279,0.0295 -0.0667,0.0465 -0.0388,0.0155 -0.0837,0.0155 -0.045,0 -0.0837,-0.0155 -0.0387,-0.017 -0.0682,-0.0465 -0.0279,-0.0294 -0.045,-0.0682 -0.0155,-0.0388 -0.0155,-0.0822 0,-0.045 0.0155,-0.0822 0.0171,-0.0388 0.045,-0.0682 0.0295,-0.0295 0.0682,-0.045 0.0388,-0.0171 0.0837,-0.0171 z"
         style="stroke-width:0.264583"
         id="path6572" />
      <path
         d="m 161.50989,113.42368 h -1.25419 v -0.19378 l 0.87902,-1.13637 h -0.85731 v -0.22634 h 1.18132 v 0.21084 l -0.86351,1.11776 h 0.91467 z"
         style="stroke-width:0.264583"
         id="path6574" />
      <path
         d="m 163.30978,112.56327 q 0,0.0574 -0.002,0.0961 -0.002,0.0388 -0.005,0.0729 h -1.09296 q 0,0.23875 0.13332,0.36742 0.13333,0.12713 0.38448,0.12713 0.0682,0 0.13642,-0.005 0.0682,-0.006 0.13178,-0.0155 0.0636,-0.009 0.12092,-0.0201 0.0589,-0.0124 0.10852,-0.0264 v 0.2217 q -0.11007,0.031 -0.2496,0.0496 -0.13797,0.0202 -0.2868,0.0202 -0.19999,0 -0.34417,-0.0543 -0.14417,-0.0543 -0.23719,-0.15658 -0.0915,-0.10387 -0.13643,-0.2527 -0.0434,-0.15038 -0.0434,-0.33951 0,-0.16433 0.0465,-0.31006 0.0481,-0.14728 0.13798,-0.25735 0.0915,-0.11162 0.22324,-0.17673 0.13178,-0.0651 0.29921,-0.0651 0.16278,0 0.28835,0.0512 0.12558,0.0512 0.21084,0.14573 0.0868,0.093 0.13023,0.22789 0.045,0.13333 0.045,0.29921 z m -0.28061,-0.0388 q 0.005,-0.10387 -0.0202,-0.18913 -0.0248,-0.0868 -0.0775,-0.14883 -0.0512,-0.062 -0.12868,-0.0961 -0.0775,-0.0357 -0.17983,-0.0357 -0.0884,0 -0.16123,0.0341 -0.0729,0.0341 -0.12558,0.0961 -0.0527,0.062 -0.0853,0.14883 -0.0326,0.0868 -0.0403,0.19068 z"
         style="stroke-width:0.264583"
         id="path6576" />
      <path
         d="m 165.23834,114.0593 h -1.74563 v -0.22324 h 1.74563 z"
         style="stroke-width:0.264583"
         id="path6578" />
      <path
         d="m 166.74058,113.40198 q -0.0915,0.0233 -0.18914,0.0326 -0.0977,0.0109 -0.19843,0.0109 -0.29301,0 -0.43719,-0.13178 -0.14417,-0.13332 -0.14417,-0.40772 v -0.81236 h -0.43564 v -0.22634 h 0.43564 v -0.42788 l 0.26975,-0.0698 v 0.49765 h 0.69918 v 0.22634 h -0.69918 v 0.79065 q 0,0.16743 0.0884,0.25115 0.0899,0.0822 0.26355,0.0822 0.0744,0 0.16279,-0.0109 0.0884,-0.0124 0.18448,-0.0372 z"
         style="stroke-width:0.264583"
         id="path6580" />
      <path
         d="m 170.21013,112.9989 q 0,0.0822 -0.0279,0.14728 -0.0279,0.0651 -0.076,0.11627 -0.0481,0.0496 -0.11162,0.0853 -0.0636,0.0357 -0.13642,0.0589 -0.0713,0.0232 -0.14728,0.0341 -0.076,0.0108 -0.14883,0.0108 -0.15813,0 -0.29145,-0.0139 -0.13178,-0.014 -0.2589,-0.045 v -0.24805 q 0.13642,0.0388 0.2713,0.0589 0.13487,0.0202 0.2682,0.0202 0.19378,0 0.2868,-0.0527 0.093,-0.0527 0.093,-0.15038 0,-0.0419 -0.0155,-0.0744 -0.014,-0.0341 -0.0527,-0.0636 -0.0388,-0.031 -0.12093,-0.0636 -0.0806,-0.0326 -0.22169,-0.0744 -0.10542,-0.031 -0.19533,-0.0698 -0.0884,-0.0403 -0.15348,-0.0946 -0.0651,-0.0543 -0.10232,-0.12712 -0.0372,-0.0729 -0.0372,-0.17208 0,-0.0651 0.0295,-0.14263 0.031,-0.0775 0.10387,-0.14418 0.0729,-0.0667 0.19688,-0.11007 0.12403,-0.045 0.31006,-0.045 0.0915,0 0.20309,0.0109 0.11162,0.009 0.23254,0.0341 v 0.2403 q -0.12712,-0.031 -0.24184,-0.045 -0.11317,-0.0155 -0.19689,-0.0155 -0.10077,0 -0.17053,0.0155 -0.0682,0.0155 -0.11162,0.0434 -0.0419,0.0263 -0.0605,0.0636 -0.0186,0.0357 -0.0186,0.0775 0,0.0419 0.0155,0.076 0.017,0.0341 0.0605,0.0667 0.045,0.031 0.12402,0.0636 0.0791,0.031 0.20619,0.0682 0.13797,0.0403 0.23254,0.0853 0.0946,0.0434 0.15348,0.0977 0.0589,0.0543 0.0837,0.12247 0.0263,0.0682 0.0263,0.15503 z"
         style="stroke-width:0.264583"
         id="path6582" />
      <path
         d="m 171.25348,112.09043 h -0.46044 v -0.22324 h 0.73329 v 1.3317 h 0.46354 v 0.22479 h -1.24799 v -0.22479 h 0.5116 z m 0.0946,-0.87591 q 0.045,0 0.0837,0.0171 0.0388,0.0155 0.0667,0.045 0.0295,0.0295 0.045,0.0682 0.0171,0.0372 0.0171,0.0822 0,0.0434 -0.0171,0.0822 -0.0155,0.0388 -0.045,0.0682 -0.0279,0.0295 -0.0667,0.0465 -0.0388,0.0155 -0.0837,0.0155 -0.045,0 -0.0837,-0.0155 -0.0388,-0.017 -0.0682,-0.0465 -0.0279,-0.0294 -0.045,-0.0682 -0.0155,-0.0388 -0.0155,-0.0822 0,-0.045 0.0155,-0.0822 0.017,-0.0388 0.045,-0.0682 0.0294,-0.0295 0.0682,-0.045 0.0388,-0.0171 0.0837,-0.0171 z"
         style="stroke-width:0.264583"
         id="path6584" />
      <path
         d="m 173.72929,113.42368 h -1.25418 v -0.19378 l 0.87901,-1.13637 h -0.85731 v -0.22634 h 1.18132 v 0.21084 l -0.86351,1.11776 h 0.91467 z"
         style="stroke-width:0.264583"
         id="path6586" />
      <path
         d="m 175.52919,112.56327 q 0,0.0574 -0.002,0.0961 -0.002,0.0388 -0.005,0.0729 h -1.09296 q 0,0.23875 0.13333,0.36742 0.13332,0.12713 0.38447,0.12713 0.0682,0 0.13643,-0.005 0.0682,-0.006 0.13177,-0.0155 0.0636,-0.009 0.12092,-0.0201 0.0589,-0.0124 0.10852,-0.0264 v 0.2217 q -0.11007,0.031 -0.24959,0.0496 -0.13798,0.0202 -0.28681,0.0202 -0.19998,0 -0.34416,-0.0543 -0.14418,-0.0543 -0.2372,-0.15658 -0.0915,-0.10387 -0.13642,-0.2527 -0.0434,-0.15038 -0.0434,-0.33951 0,-0.16433 0.0465,-0.31006 0.0481,-0.14728 0.13797,-0.25735 0.0915,-0.11162 0.22325,-0.17673 0.13177,-0.0651 0.2992,-0.0651 0.16278,0 0.28836,0.0512 0.12557,0.0512 0.21084,0.14573 0.0868,0.093 0.13022,0.22789 0.045,0.13333 0.045,0.29921 z m -0.2806,-0.0388 q 0.005,-0.10387 -0.0202,-0.18913 -0.0248,-0.0868 -0.0775,-0.14883 -0.0512,-0.062 -0.12867,-0.0961 -0.0775,-0.0357 -0.17984,-0.0357 -0.0884,0 -0.16123,0.0341 -0.0729,0.0341 -0.12557,0.0961 -0.0527,0.062 -0.0853,0.14883 -0.0326,0.0868 -0.0403,0.19068 z"
         style="stroke-width:0.264583"
         id="path6588" />
      <path
         d="m 176.27798,111.1153 q 0.71469,0.66197 0.71469,1.47278 0,0.16743 -0.0341,0.34726 -0.0341,0.17983 -0.11627,0.36897 -0.0822,0.18759 -0.22169,0.38137 -0.13798,0.19379 -0.34882,0.38913 l -0.15658,-0.15968 q 0.30231,-0.29921 0.45114,-0.62477 0.14882,-0.32556 0.14882,-0.68213 0,-0.73794 -0.59996,-1.32705 z"
         style="stroke-width:0.264583"
         id="path6590" />
      <path
         d="M 49.671752,118.02805 H 49.55703 q -0.299206,0 -0.444934,-0.14107 -0.145727,-0.13953 -0.145727,-0.42478 v -0.5333 q 0,-0.076 -0.01705,-0.13488 -0.01705,-0.0605 -0.06046,-0.10077 -0.04186,-0.0419 -0.113171,-0.0636 -0.06976,-0.0217 -0.176734,-0.0217 h -0.06666 v -0.21549 h 0.06666 q 0.113172,0 0.184485,-0.0186 0.07131,-0.0186 0.111621,-0.0558 0.04031,-0.0388 0.05581,-0.0977 0.0155,-0.0589 0.0155,-0.13952 v -0.36742 q 0,-0.13023 0.03101,-0.2341 0.03101,-0.10542 0.100769,-0.17828 0.07131,-0.0744 0.182934,-0.11317 0.113172,-0.0403 0.275952,-0.0403 h 0.114722 v 0.21704 h -0.09147 q -0.359668,0 -0.359668,0.34882 v 0.36121 q 0,0.37828 -0.327112,0.42633 0.330212,0.0326 0.330212,0.42478 v 0.5302 q 0,0.35502 0.356568,0.35502 h 0.09147 z"
         style="stroke-width:0.264583"
         id="path6592" />
      <path
         d="m 63.875537,119.42177 q -0.212391,-0.045 -0.36587,-0.045 -0.364318,0 -0.364318,0.38137 v 0.27285 h 0.682128 v 0.22479 h -0.682128 v 1.10536 h -0.274402 v -1.10536 h -0.500745 v -0.22479 h 0.500745 v -0.25735 q 0,-0.62166 0.648022,-0.62166 0.161231,0 0.356568,0.0372 z m -1.629358,0.38292 z"
         style="stroke-width:0.264583"
         id="path6594" />
      <path
         d="m 65.681628,119.80469 -0.226343,1.55649 h -0.327111 l -0.224793,-0.65112 -0.04496,-0.15813 -0.05116,0.16743 -0.215491,0.64182 h -0.31781 l -0.224792,-1.55649 h 0.26355 l 0.130224,1.0573 0.02791,0.23564 0.06666,-0.20619 0.226343,-0.69918 h 0.193786 l 0.243396,0.68988 0.06976,0.20619 0.02325,-0.21859 0.120923,-1.06505 z"
         style="stroke-width:0.264583"
         id="path6596" />
      <path
         d="m 66.049047,119.80469 h 0.246497 l 0.0078,0.2868 q 0.137976,-0.16588 0.271301,-0.24029 0.134876,-0.0744 0.271302,-0.0744 0.241845,0 0.365869,0.15658 0.125574,0.15658 0.116272,0.46509 h -0.272852 q 0.0047,-0.20464 -0.06046,-0.29611 -0.06356,-0.093 -0.187586,-0.093 -0.05426,0 -0.11007,0.0202 -0.05426,0.0186 -0.113172,0.062 -0.05736,0.0419 -0.122473,0.10852 -0.06511,0.0667 -0.139526,0.16123 v 0.99994 h -0.272852 z"
         style="stroke-width:0.264583"
         id="path6598" />
      <path
         d="m 68.261316,120.02793 h -0.460437 v -0.22324 h 0.733288 v 1.3317 h 0.463538 v 0.22479 h -1.247986 v -0.22479 h 0.511597 z m 0.09457,-0.87591 q 0.04496,0 0.08372,0.0171 0.03876,0.0155 0.06666,0.045 0.02945,0.0295 0.04496,0.0682 0.01705,0.0372 0.01705,0.0822 0,0.0434 -0.01705,0.0822 -0.0155,0.0388 -0.04496,0.0682 -0.02791,0.0295 -0.06666,0.0465 -0.03876,0.0155 -0.08372,0.0155 -0.04496,0 -0.08372,-0.0155 -0.03876,-0.017 -0.06821,-0.0465 -0.02791,-0.0294 -0.04496,-0.0682 -0.0155,-0.0388 -0.0155,-0.0822 0,-0.045 0.0155,-0.0822 0.01705,-0.0388 0.04496,-0.0682 0.02946,-0.0295 0.06821,-0.045 0.03876,-0.0171 0.08372,-0.0171 z"
         style="stroke-width:0.264583"
         id="path6600" />
      <path
         d="m 70.730933,121.33948 q -0.09147,0.0233 -0.189136,0.0326 -0.09767,0.0109 -0.198438,0.0109 -0.293005,0 -0.437182,-0.13178 Q 69.762,121.11779 69.762,120.84339 v -0.81236 h -0.435633 v -0.22634 H 69.762 v -0.42788 l 0.26975,-0.0698 v 0.49765 h 0.699183 V 120.031 H 70.03175 v 0.79065 q 0,0.16743 0.08837,0.25115 0.08992,0.0822 0.26355,0.0822 0.07441,0 0.162781,-0.0109 0.08837,-0.0124 0.184485,-0.0372 z"
         style="stroke-width:0.264583"
         id="path6602" />
      <path
         d="m 72.537024,120.50077 q 0,0.0574 -0.0016,0.0961 -0.0015,0.0388 -0.0047,0.0729 h -1.092956 q 0,0.23875 0.133325,0.36742 0.133325,0.12713 0.384472,0.12713 0.06821,0 0.136426,-0.005 0.06821,-0.006 0.131775,-0.0155 0.06356,-0.009 0.120923,-0.0201 0.05891,-0.0124 0.10852,-0.0264 v 0.22169 q -0.11007,0.031 -0.249597,0.0496 -0.137976,0.0202 -0.286804,0.0202 -0.199988,0 -0.344165,-0.0543 -0.144177,-0.0543 -0.237195,-0.15658 -0.09147,-0.10387 -0.136426,-0.2527 -0.04341,-0.15038 -0.04341,-0.33951 0,-0.16433 0.04651,-0.31006 0.04806,-0.14728 0.137976,-0.25735 0.09147,-0.11162 0.223242,-0.17673 0.131775,-0.0651 0.299207,-0.0651 0.162781,0 0.288354,0.0512 0.125574,0.0512 0.21084,0.14573 0.08682,0.093 0.130225,0.22789 0.04496,0.13333 0.04496,0.29921 z m -0.280603,-0.0388 q 0.0047,-0.10387 -0.02015,-0.18913 -0.0248,-0.0868 -0.07751,-0.14883 -0.05116,-0.062 -0.128675,-0.0961 -0.07751,-0.0357 -0.179833,-0.0357 -0.08837,0 -0.161231,0.0341 -0.07286,0.0341 -0.125574,0.0961 -0.05271,0.062 -0.08527,0.14883 -0.03256,0.0868 -0.04031,0.19068 z"
         style="stroke-width:0.264583"
         id="path6604" />
      <path
         d="m 73.89973,122.01231 q -0.714685,-0.66198 -0.714685,-1.46348 0,-0.18759 0.03721,-0.37362 0.03876,-0.18759 0.122473,-0.37517 0.08527,-0.18759 0.223243,-0.37517 0.139526,-0.18759 0.337963,-0.37207 l 0.15658,0.15968 q -0.601514,0.59376 -0.601514,1.3162 0,0.35966 0.151929,0.69143 0.151929,0.33176 0.449585,0.62631 z"
         style="stroke-width:0.264583"
         id="path6606" />
      <path
         d="m 76.043786,120.55503 q 0,0.19379 -0.05426,0.34727 -0.05271,0.15192 -0.151929,0.2589 -0.09767,0.10541 -0.238745,0.16278 -0.141077,0.0558 -0.31781,0.0558 -0.137976,0 -0.282154,-0.0264 -0.144177,-0.0264 -0.285254,-0.0837 v -2.0991 h 0.269751 v 0.60306 l -0.0124,0.28836 q 0.116272,-0.15658 0.248047,-0.22014 0.133325,-0.0651 0.285254,-0.0651 0.133325,0 0.234094,0.0558 0.100769,0.0558 0.168982,0.15813 0.06821,0.10077 0.102319,0.24495 0.03411,0.14263 0.03411,0.31936 z m -0.275952,0.0124 q 0,-0.12247 -0.0186,-0.22479 -0.01705,-0.10232 -0.05581,-0.17518 -0.03876,-0.0729 -0.09922,-0.11317 -0.06046,-0.0419 -0.144177,-0.0419 -0.05116,0 -0.10387,0.0171 -0.05271,0.0155 -0.110071,0.0543 -0.05581,0.0372 -0.119372,0.10077 -0.06201,0.062 -0.133326,0.15503 v 0.75499 q 0.07906,0.031 0.161231,0.0496 0.08217,0.0171 0.15658,0.0171 0.09302,0 0.176733,-0.0295 0.08527,-0.0295 0.148828,-0.0977 0.06511,-0.0698 0.102319,-0.18293 0.03876,-0.11473 0.03876,-0.28371 z"
         style="stroke-width:0.264583"
         id="path6608" />
      <path
         d="m 77.710351,121.36118 h -0.241846 l -0.0093,-0.25114 q -0.06976,0.0806 -0.133325,0.13487 -0.06201,0.0527 -0.124024,0.0853 -0.06201,0.0326 -0.125574,0.045 -0.06201,0.0139 -0.131775,0.0139 -0.240295,0 -0.362768,-0.14108 -0.122473,-0.14108 -0.122473,-0.42633 v -1.01699 h 0.269751 V 120.8 q 0,0.35811 0.269751,0.35811 0.04961,0 0.09612,-0.014 0.04806,-0.0155 0.09922,-0.0512 0.05271,-0.0372 0.111621,-0.0992 0.06046,-0.062 0.134875,-0.15658 v -1.03249 h 0.269751 z"
         style="stroke-width:0.264583"
         id="path6610" />
      <path
         d="m 79.586206,119.42177 q -0.21239,-0.045 -0.365869,-0.045 -0.364319,0 -0.364319,0.38137 v 0.27285 h 0.682129 v 0.22479 h -0.682129 v 1.10536 h -0.274402 v -1.10536 h -0.500744 v -0.22479 h 0.500744 v -0.25735 q 0,-0.62166 0.648023,-0.62166 0.16123,0 0.356567,0.0372 z m -1.629358,0.38292 z"
         style="stroke-width:0.264583"
         id="path6612" />
      <path
         d="m 80.071448,121.67899 q 0.07906,0.003 0.153479,-0.0139 0.07441,-0.0171 0.130225,-0.0512 0.05736,-0.0326 0.09147,-0.0822 0.03411,-0.0496 0.03411,-0.11318 0,-0.0651 -0.02325,-0.10542 -0.0217,-0.0403 -0.04961,-0.0744 -0.02791,-0.0341 -0.05116,-0.0729 -0.0217,-0.0388 -0.0217,-0.10387 0,-0.0326 0.0124,-0.0682 0.0124,-0.0356 0.03721,-0.0651 0.02635,-0.0295 0.06511,-0.0481 0.04031,-0.0186 0.09457,-0.0186 0.05426,0 0.10387,0.0232 0.05116,0.0217 0.08837,0.0682 0.03876,0.0465 0.06046,0.11627 0.02325,0.0698 0.02325,0.16433 0,0.12867 -0.04806,0.2465 -0.04651,0.11937 -0.141077,0.21084 -0.09302,0.0915 -0.234094,0.14572 -0.139527,0.0543 -0.325562,0.0543 z"
         style="stroke-width:0.264583"
         id="path6614" />
      <path
         d="m 84.674267,120.9364 q 0,0.0822 -0.02791,0.14728 -0.02791,0.0651 -0.07596,0.11627 -0.04806,0.0496 -0.111621,0.0853 -0.06356,0.0357 -0.136426,0.0589 -0.07131,0.0232 -0.147278,0.0341 -0.07596,0.0108 -0.148828,0.0108 -0.15813,0 -0.291455,-0.0139 -0.131775,-0.014 -0.258899,-0.045 v -0.24805 q 0.136426,0.0388 0.271302,0.0589 0.134875,0.0202 0.2682,0.0202 0.193787,0 0.286804,-0.0527 0.09302,-0.0527 0.09302,-0.15038 0,-0.0419 -0.0155,-0.0744 -0.01395,-0.0341 -0.05271,-0.0636 -0.03876,-0.031 -0.120923,-0.0636 -0.08062,-0.0326 -0.221692,-0.0744 -0.105419,-0.031 -0.195336,-0.0698 -0.08837,-0.0403 -0.153479,-0.0946 -0.06511,-0.0543 -0.10232,-0.12712 -0.03721,-0.0729 -0.03721,-0.17208 0,-0.0651 0.02946,-0.14263 0.03101,-0.0775 0.103869,-0.14418 0.07286,-0.0667 0.196888,-0.11007 0.124023,-0.045 0.310058,-0.045 0.09147,0 0.203089,0.0109 0.111621,0.009 0.232543,0.0341 v 0.2403 q -0.127124,-0.031 -0.241845,-0.045 -0.113172,-0.0155 -0.196887,-0.0155 -0.100769,0 -0.170533,0.0155 -0.06821,0.0155 -0.111621,0.0434 -0.04186,0.0263 -0.06046,0.0636 -0.0186,0.0357 -0.0186,0.0775 0,0.0419 0.0155,0.076 0.01705,0.0341 0.06046,0.0667 0.04496,0.031 0.124023,0.0636 0.07906,0.031 0.206189,0.0682 0.137976,0.0403 0.232544,0.0853 0.09457,0.0434 0.153479,0.0977 0.05891,0.0543 0.08372,0.12247 0.02635,0.0682 0.02635,0.15503 z"
         style="stroke-width:0.264583"
         id="path6616" />
      <path
         d="m 85.717616,120.02793 h -0.460437 v -0.22324 h 0.733289 v 1.3317 h 0.463537 v 0.22479 H 85.20602 v -0.22479 h 0.511596 z m 0.09457,-0.87591 q 0.04496,0 0.08372,0.0171 0.03876,0.0155 0.06666,0.045 0.02945,0.0295 0.04496,0.0682 0.01705,0.0372 0.01705,0.0822 0,0.0434 -0.01705,0.0822 -0.0155,0.0388 -0.04496,0.0682 -0.02791,0.0295 -0.06666,0.0465 -0.03876,0.0155 -0.08372,0.0155 -0.04496,0 -0.08372,-0.0155 -0.03876,-0.017 -0.06821,-0.0465 -0.02791,-0.0294 -0.04496,-0.0682 -0.0155,-0.0388 -0.0155,-0.0822 0,-0.045 0.0155,-0.0822 0.01705,-0.0388 0.04496,-0.0682 0.02946,-0.0295 0.06821,-0.045 0.03876,-0.0171 0.08372,-0.0171 z"
         style="stroke-width:0.264583"
         id="path6618" />
      <path
         d="m 88.193433,121.36118 h -1.254187 v -0.19378 l 0.879016,-1.13637 H 86.96095 v -0.22634 h 1.181323 v 0.21084 l -0.863513,1.11776 h 0.914673 z"
         style="stroke-width:0.264583"
         id="path6620" />
      <path
         d="m 89.993321,120.50077 q 0,0.0574 -0.0015,0.0961 -0.0015,0.0388 -0.0047,0.0729 h -1.092956 q 0,0.23875 0.133325,0.36742 0.133325,0.12713 0.384472,0.12713 0.06821,0 0.136426,-0.005 0.06821,-0.006 0.131775,-0.0155 0.06356,-0.009 0.120923,-0.0201 0.05891,-0.0124 0.10852,-0.0264 v 0.22169 q -0.11007,0.031 -0.249597,0.0496 -0.137976,0.0202 -0.286804,0.0202 -0.199988,0 -0.344165,-0.0543 -0.144177,-0.0543 -0.237195,-0.15658 -0.09147,-0.10387 -0.136426,-0.2527 -0.04341,-0.15038 -0.04341,-0.33951 0,-0.16433 0.04651,-0.31006 0.04806,-0.14728 0.137976,-0.25735 0.09147,-0.11162 0.223242,-0.17673 0.131775,-0.0651 0.299207,-0.0651 0.162781,0 0.288354,0.0512 0.125574,0.0512 0.21084,0.14573 0.08682,0.093 0.130225,0.22789 0.04496,0.13333 0.04496,0.29921 z m -0.280603,-0.0388 q 0.0047,-0.10387 -0.02015,-0.18913 -0.0248,-0.0868 -0.07751,-0.14883 -0.05116,-0.062 -0.128675,-0.0961 -0.07751,-0.0357 -0.179834,-0.0357 -0.08837,0 -0.16123,0.0341 -0.07286,0.0341 -0.125574,0.0961 -0.05271,0.062 -0.08527,0.14883 -0.03256,0.0868 -0.04031,0.19068 z"
         style="stroke-width:0.264583"
         id="path6622" />
      <path
         d="m 90.545228,121.67899 q 0.07906,0.003 0.153479,-0.0139 0.07441,-0.0171 0.130224,-0.0512 0.05736,-0.0326 0.09147,-0.0822 0.03411,-0.0496 0.03411,-0.11318 0,-0.0651 -0.02325,-0.10542 -0.0217,-0.0403 -0.04961,-0.0744 -0.02791,-0.0341 -0.05116,-0.0729 -0.0217,-0.0388 -0.0217,-0.10387 0,-0.0326 0.0124,-0.0682 0.0124,-0.0356 0.03721,-0.0651 0.02636,-0.0295 0.06511,-0.0481 0.04031,-0.0186 0.09457,-0.0186 0.05426,0 0.10387,0.0232 0.05116,0.0217 0.08837,0.0682 0.03876,0.0465 0.06046,0.11627 0.02325,0.0698 0.02325,0.16433 0,0.12867 -0.04806,0.2465 -0.04651,0.11937 -0.141076,0.21084 -0.09302,0.0915 -0.234095,0.14572 -0.139526,0.0543 -0.325561,0.0543 z"
         style="stroke-width:0.264583"
         id="path6624" />
      <path
         d="M 95.213161,121.36118 H 93.94037 v -0.25114 h 0.520899 v -1.47898 l -0.485242,0.26355 -0.09922,-0.22945 0.644922,-0.33951 h 0.238745 v 1.78439 h 0.452686 z"
         style="fill:#ff00ff"
         id="path6626" />
      <path
         d="m 95.782117,121.67899 q 0.07906,0.003 0.153479,-0.0139 0.07441,-0.0171 0.130224,-0.0512 0.05736,-0.0326 0.09147,-0.0822 0.03411,-0.0496 0.03411,-0.11318 0,-0.0651 -0.02325,-0.10542 -0.0217,-0.0403 -0.04961,-0.0744 -0.02791,-0.0341 -0.05116,-0.0729 -0.0217,-0.0388 -0.0217,-0.10387 0,-0.0326 0.0124,-0.0682 0.0124,-0.0356 0.03721,-0.0651 0.02635,-0.0295 0.06511,-0.0481 0.04031,-0.0186 0.09457,-0.0186 0.05426,0 0.10387,0.0232 0.05116,0.0217 0.08837,0.0682 0.03876,0.0465 0.06046,0.11627 0.02325,0.0698 0.02325,0.16433 0,0.12867 -0.04806,0.2465 -0.04651,0.11937 -0.141077,0.21084 -0.09302,0.0915 -0.234094,0.14572 -0.139526,0.0543 -0.325561,0.0543 z"
         style="stroke-width:0.264583"
         id="path6628" />
      <path
         d="m 100.38494,120.9364 q 0,0.0822 -0.0279,0.14728 -0.0279,0.0651 -0.076,0.11627 -0.0481,0.0496 -0.11162,0.0853 -0.0636,0.0357 -0.13643,0.0589 -0.07131,0.0232 -0.147277,0.0341 -0.07596,0.0108 -0.148828,0.0108 -0.15813,0 -0.291455,-0.0139 -0.131775,-0.014 -0.258899,-0.045 v -0.24805 q 0.136426,0.0388 0.271301,0.0589 0.134876,0.0202 0.268201,0.0202 0.193786,0 0.286807,-0.0527 0.093,-0.0527 0.093,-0.15038 0,-0.0419 -0.0155,-0.0744 -0.0139,-0.0341 -0.0527,-0.0636 -0.03876,-0.031 -0.120921,-0.0636 -0.08061,-0.0326 -0.221692,-0.0744 -0.10542,-0.031 -0.195337,-0.0698 -0.08837,-0.0403 -0.153479,-0.0946 -0.06511,-0.0543 -0.102319,-0.12712 -0.03721,-0.0729 -0.03721,-0.17208 0,-0.0651 0.02945,-0.14263 0.03101,-0.0775 0.10387,-0.14418 0.07286,-0.0667 0.196887,-0.11007 0.124023,-0.045 0.310059,-0.045 0.09147,0 0.203082,0.0109 0.11163,0.009 0.23255,0.0341 v 0.2403 q -0.12713,-0.031 -0.24185,-0.045 -0.113167,-0.0155 -0.196883,-0.0155 -0.100769,0 -0.170532,0.0155 -0.06821,0.0155 -0.111621,0.0434 -0.04186,0.0263 -0.06046,0.0636 -0.0186,0.0357 -0.0186,0.0775 0,0.0419 0.0155,0.076 0.01705,0.0341 0.06046,0.0667 0.04496,0.031 0.124024,0.0636 0.07906,0.031 0.206189,0.0682 0.137973,0.0403 0.232543,0.0853 0.0946,0.0434 0.15348,0.0977 0.0589,0.0543 0.0837,0.12247 0.0264,0.0682 0.0264,0.15503 z"
         style="fill:#ff00ff"
         id="path6630" />
      <path
         d="m 102.15227,121.33948 q -0.0915,0.0233 -0.18914,0.0326 -0.0977,0.0109 -0.19843,0.0109 -0.29301,0 -0.43719,-0.13178 -0.14417,-0.13332 -0.14417,-0.40772 v -0.81236 h -0.43564 v -0.22634 h 0.43564 v -0.42788 l 0.26975,-0.0698 v 0.49765 h 0.69918 v 0.22634 h -0.69918 v 0.79065 q 0,0.16743 0.0884,0.25115 0.0899,0.0822 0.26355,0.0822 0.0744,0 0.16278,-0.0109 0.0884,-0.0124 0.18449,-0.0372 z"
         style="fill:#ff00ff"
         id="path6632" />
      <path
         d="m 102.56465,120.61549 q 0,-0.19844 0.0543,-0.35191 0.0543,-0.15503 0.15348,-0.26045 0.10077,-0.10697 0.24029,-0.16123 0.14108,-0.0558 0.31316,-0.0558 0.0744,0 0.14573,0.009 0.0729,0.009 0.14263,0.0294 v -0.65422 h 0.2713 v 2.19056 h -0.24185 l -0.009,-0.29455 q -0.11317,0.16433 -0.24494,0.24339 -0.13178,0.0791 -0.28526,0.0791 -0.13332,0 -0.23564,-0.0558 -0.10077,-0.0558 -0.16898,-0.15658 -0.0667,-0.10232 -0.10077,-0.24495 -0.0341,-0.14263 -0.0341,-0.31626 z m 0.27595,-0.017 q 0,0.28215 0.0822,0.42168 0.0837,0.13797 0.23564,0.13797 0.10232,0 0.21549,-0.0915 0.11472,-0.0915 0.2403,-0.2713 v -0.72244 q -0.0667,-0.031 -0.14728,-0.0465 -0.0806,-0.017 -0.15968,-0.017 -0.22014,0 -0.34416,0.14262 -0.12248,0.14263 -0.12248,0.44649 z"
         style="fill:#ff00ff"
         id="path6634" />
      <path
         d="m 105.7443,120.57053 q 0,0.18139 -0.0512,0.33332 -0.0512,0.15037 -0.14728,0.2589 -0.0961,0.10697 -0.23409,0.16743 -0.13798,0.0589 -0.31316,0.0589 -0.16743,0 -0.30076,-0.0512 -0.13177,-0.0527 -0.22479,-0.15348 -0.0915,-0.10077 -0.14108,-0.2496 -0.0481,-0.14883 -0.0481,-0.34261 0,-0.18139 0.0512,-0.33021 0.0512,-0.15038 0.14728,-0.25735 0.0961,-0.10852 0.2341,-0.16744 0.13797,-0.0605 0.31315,-0.0605 0.16744,0 0.29921,0.0527 0.13333,0.0512 0.22479,0.15193 0.093,0.0992 0.14108,0.24805 0.0496,0.14883 0.0496,0.34106 z m -0.27595,0.0124 q 0,-0.14418 -0.0326,-0.25115 -0.031,-0.10852 -0.0899,-0.17984 -0.0589,-0.0729 -0.14417,-0.10852 -0.0837,-0.0372 -0.18759,-0.0372 -0.12092,0 -0.20774,0.0481 -0.0853,0.0465 -0.14107,0.12557 -0.0543,0.0791 -0.0806,0.18448 -0.0248,0.10387 -0.0248,0.2186 0,0.14417 0.031,0.25269 0.0326,0.10852 0.0915,0.18139 0.0589,0.0713 0.14263,0.10852 0.0837,0.0357 0.18913,0.0357 0.12092,0 0.20619,-0.0465 0.0868,-0.0481 0.14108,-0.12713 0.0558,-0.0791 0.0806,-0.18293 0.0264,-0.10542 0.0264,-0.22169 z"
         style="fill:#ff00ff"
         id="path6636" />
      <path
         d="m 107.38606,121.36118 h -0.24185 l -0.009,-0.25114 q -0.0698,0.0806 -0.13332,0.13487 -0.062,0.0527 -0.12403,0.0853 -0.062,0.0326 -0.12557,0.045 -0.062,0.0139 -0.13178,0.0139 -0.24029,0 -0.36277,-0.14108 -0.12247,-0.14108 -0.12247,-0.42633 v -1.01699 h 0.26975 V 120.8 q 0,0.35811 0.26975,0.35811 0.0496,0 0.0961,-0.014 0.0481,-0.0155 0.0992,-0.0512 0.0527,-0.0372 0.11162,-0.0992 0.0605,-0.062 0.13488,-0.15658 v -1.03249 h 0.26975 z"
         style="fill:#ff00ff"
         id="path6638" />
      <path
         d="m 109.13479,121.33948 q -0.0915,0.0233 -0.18913,0.0326 -0.0977,0.0109 -0.19844,0.0109 -0.29301,0 -0.43719,-0.13178 -0.14417,-0.13332 -0.14417,-0.40772 v -0.81236 h -0.43563 v -0.22634 h 0.43563 v -0.42788 l 0.26975,-0.0698 v 0.49765 h 0.69918 v 0.22634 h -0.69918 v 0.79065 q 0,0.16743 0.0884,0.25115 0.0899,0.0822 0.26355,0.0822 0.0744,0 0.16278,-0.0109 0.0884,-0.0124 0.18448,-0.0372 z"
         style="fill:#ff00ff"
         id="path6640" />
      <path
         d="m 109.94404,119.0528 q 0.71469,0.66197 0.71469,1.47277 0,0.16744 -0.0341,0.34727 -0.0341,0.17983 -0.11627,0.36897 -0.0822,0.18759 -0.22169,0.38137 -0.13798,0.19379 -0.34882,0.38913 l -0.15658,-0.15968 q 0.30231,-0.29921 0.45114,-0.62477 0.14882,-0.32556 0.14882,-0.68213 0,-0.73794 -0.59996,-1.32705 z"
         style="stroke-width:0.264583"
         id="path6642" />
      <path
         d="m 111.51139,121.67899 q 0.0791,0.003 0.15348,-0.0139 0.0744,-0.0171 0.13022,-0.0512 0.0574,-0.0326 0.0915,-0.0822 0.0341,-0.0496 0.0341,-0.11318 0,-0.0651 -0.0233,-0.10542 -0.0217,-0.0403 -0.0496,-0.0744 -0.0279,-0.0341 -0.0512,-0.0729 -0.0217,-0.0388 -0.0217,-0.10387 0,-0.0326 0.0124,-0.0682 0.0124,-0.0356 0.0372,-0.0651 0.0263,-0.0295 0.0651,-0.0481 0.0403,-0.0186 0.0946,-0.0186 0.0543,0 0.10387,0.0232 0.0512,0.0217 0.0884,0.0682 0.0388,0.0465 0.0605,0.11627 0.0233,0.0698 0.0233,0.16433 0,0.12867 -0.0481,0.2465 -0.0465,0.11937 -0.14107,0.21084 -0.093,0.0915 -0.2341,0.14572 -0.13952,0.0543 -0.32556,0.0543 z m 0.48524,-1.90221 q 0.0481,0 0.0915,0.0202 0.0434,0.0186 0.076,0.0512 0.0326,0.0326 0.0512,0.076 0.0202,0.0434 0.0202,0.0915 0,0.0496 -0.0202,0.093 -0.0186,0.0419 -0.0512,0.0744 -0.0326,0.0326 -0.076,0.0512 -0.0434,0.0186 -0.0915,0.0186 -0.0496,0 -0.093,-0.0186 -0.0418,-0.0186 -0.0744,-0.0512 -0.0326,-0.0326 -0.0512,-0.0744 -0.0186,-0.0434 -0.0186,-0.093 0,-0.0481 0.0186,-0.0915 0.0186,-0.0434 0.0512,-0.076 0.0326,-0.0326 0.0744,-0.0512 0.0434,-0.0202 0.093,-0.0202 z"
         style="stroke-width:0.264583"
         id="path6644" />
      <path
         d="m 48.636156,123.08511 h 0.114722 q 0.299207,0 0.444934,0.14108 0.145728,0.13952 0.145728,0.42478 v 0.35811 q 0,0.076 0.01705,0.13643 0.01705,0.0589 0.05891,0.10077 0.04341,0.0403 0.114722,0.062 0.07131,0.0217 0.178283,0.0217 h 0.06666 v 0.21549 h -0.06666 q -0.113171,0 -0.186035,0.0186 -0.07131,0.0186 -0.111621,0.0574 -0.04031,0.0372 -0.05581,0.0961 -0.0155,0.0589 -0.0155,0.13952 v 0.54261 q 0,0.13022 -0.03101,0.23409 -0.03101,0.10542 -0.100769,0.17828 -0.06976,0.0744 -0.182935,0.11318 -0.113171,0.0403 -0.275952,0.0403 h -0.114722 v -0.21704 h 0.09302 q 0.358118,0 0.358118,-0.34881 v -0.53641 q 0,-0.37827 0.327112,-0.42478 -0.330213,-0.0356 -0.330213,-0.42633 v -0.35501 q 0,-0.35502 -0.355017,-0.35502 h -0.09302 z"
         style="stroke-width:0.264583"
         id="path6646" />
    </g>
  </g>
</svg>
