<?xml version="1.0" encoding="UTF-8" standalone="no"?>
<svg
   xmlns:dc="http://purl.org/dc/elements/1.1/"
   xmlns:cc="http://creativecommons.org/ns#"
   xmlns:rdf="http://www.w3.org/1999/02/22-rdf-syntax-ns#"
   xmlns:svg="http://www.w3.org/2000/svg"
   xmlns="http://www.w3.org/2000/svg"
   xmlns:xlink="http://www.w3.org/1999/xlink"
   xmlns:sodipodi="http://sodipodi.sourceforge.net/DTD/sodipodi-0.dtd"
   xmlns:inkscape="http://www.inkscape.org/namespaces/inkscape"
   width="12.051276mm"
   height="5.0062733mm"
   viewBox="0 0 12.051276 5.0062733"
   version="1.1"
   id="svg2328"
   inkscape:version="1.0.2 (e86c870879, 2021-01-15)"
   sodipodi:docname="line.svg">
  <defs
     id="defs2322" />
  <sodipodi:namedview
     id="base"
     pagecolor="#ffffff"
     bordercolor="#666666"
     borderopacity="1.0"
     inkscape:pageopacity="0.0"
     inkscape:pageshadow="2"
     inkscape:zoom="5.6"
     inkscape:cx="56.397542"
     inkscape:cy="35.944363"
     inkscape:document-units="mm"
     inkscape:current-layer="layer1"
     inkscape:document-rotation="0"
     showgrid="false"
     fit-margin-top="0"
     fit-margin-left="0"
     fit-margin-right="0"
     fit-margin-bottom="0"
     inkscape:window-width="1533"
     inkscape:window-height="1016"
     inkscape:window-x="50"
     inkscape:window-y="27"
     inkscape:window-maximized="0" />
  <metadata
     id="metadata2325">
    <rdf:RDF>
      <cc:Work
         rdf:about="">
        <dc:format>image/svg+xml</dc:format>
        <dc:type
           rdf:resource="http://purl.org/dc/dcmitype/StillImage" />
        <dc:title></dc:title>
      </cc:Work>
    </rdf:RDF>
  </metadata>
  <g
     inkscape:label="Layer 1"
     inkscape:groupmode="layer"
     id="layer1"
     transform="translate(-90.736266,-73.848054)">
    <g
       id="g2291"
       transform="translate(49.264503,-85.625212)">
      <g
         id="g1704">
        <g
           aria-label="#include &quot;cache.h&quot; #include &quot;config.h&quot; ··· static void std_output(struct grep_opt *opt, const void *buf, size_t size) {         fwrite(buf, size, 1, stdout); }  "
           id="g1224"
           style="font-size:3.175px;line-height:1.25;font-family:Consolas;-inkscape-font-specification:Consolas;stroke-width:0.264583"
           transform="translate(-6.8784331,49.502296)">
          <path
             d="m 49.761669,112.9989 q 0,0.0822 -0.0279,0.14728 -0.02791,0.0651 -0.07596,0.11627 -0.04806,0.0496 -0.111622,0.0853 -0.06356,0.0357 -0.136425,0.0589 -0.07131,0.0232 -0.147278,0.0341 -0.07597,0.0108 -0.148828,0.0108 -0.15813,0 -0.291455,-0.0139 -0.131775,-0.014 -0.258899,-0.045 v -0.24805 q 0.136425,0.0388 0.271301,0.0589 0.134875,0.0202 0.268201,0.0202 0.193786,0 0.286804,-0.0527 0.09302,-0.0527 0.09302,-0.15038 0,-0.0419 -0.0155,-0.0744 -0.01395,-0.0341 -0.05271,-0.0636 -0.03876,-0.031 -0.120923,-0.0636 -0.08062,-0.0326 -0.221692,-0.0744 -0.10542,-0.031 -0.195337,-0.0698 -0.08837,-0.0403 -0.153479,-0.0946 -0.06511,-0.0543 -0.102319,-0.12712 -0.03721,-0.0729 -0.03721,-0.17208 0,-0.0651 0.02946,-0.14263 0.03101,-0.0775 0.10387,-0.14418 0.07286,-0.0667 0.196887,-0.11007 0.124023,-0.045 0.310058,-0.045 0.09147,0 0.203089,0.0109 0.111621,0.009 0.232544,0.0341 v 0.2403 q -0.127124,-0.031 -0.241846,-0.045 -0.113171,-0.0155 -0.196887,-0.0155 -0.100769,0 -0.170532,0.0155 -0.06821,0.0155 -0.111621,0.0434 -0.04186,0.0263 -0.06046,0.0636 -0.0186,0.0357 -0.0186,0.0775 0,0.0419 0.0155,0.076 0.01705,0.0341 0.06046,0.0667 0.04496,0.031 0.124023,0.0636 0.07906,0.031 0.206189,0.0682 0.137976,0.0403 0.232544,0.0853 0.09457,0.0434 0.153479,0.0977 0.05891,0.0543 0.08372,0.12247 0.02635,0.0682 0.02635,0.15503 z"
             style="fill:#008000"
             id="path1038" />
          <path
             d="m 51.529003,113.40198 q -0.09147,0.0233 -0.189136,0.0326 -0.09767,0.0109 -0.198437,0.0109 -0.293005,0 -0.437183,-0.13178 -0.144177,-0.13332 -0.144177,-0.40772 v -0.81236 h -0.435632 v -0.22634 h 0.435632 v -0.42788 l 0.269751,-0.0698 v 0.49765 h 0.699182 v 0.22634 h -0.699182 v 0.79065 q 0,0.16743 0.08837,0.25115 0.08992,0.0822 0.26355,0.0822 0.07441,0 0.16278,-0.0109 0.08837,-0.0124 0.184485,-0.0372 z"
             style="fill:#008000"
             id="path1040" />
          <path
             d="m 53.020385,113.42368 -0.0062,-0.20929 q -0.127124,0.12558 -0.258899,0.18139 -0.130225,0.0558 -0.274402,0.0558 -0.133325,0 -0.227893,-0.0341 -0.09457,-0.0341 -0.15658,-0.093 -0.06046,-0.0605 -0.08992,-0.14107 -0.0279,-0.0806 -0.0279,-0.17519 0,-0.23409 0.173633,-0.36586 0.175183,-0.13333 0.516248,-0.13333 h 0.32246 v -0.13643 q 0,-0.13797 -0.08837,-0.22014 -0.08837,-0.0837 -0.269751,-0.0837 -0.131775,0 -0.260449,0.0294 -0.127124,0.0295 -0.26355,0.0837 v -0.2434 q 0.05116,-0.0186 0.113171,-0.0357 0.06356,-0.0186 0.133325,-0.0326 0.06976,-0.0139 0.145728,-0.0217 0.07596,-0.009 0.153479,-0.009 0.141077,0 0.254248,0.031 0.113171,0.031 0.190686,0.0946 0.07906,0.0636 0.120923,0.15968 0.04186,0.0961 0.04186,0.22634 v 1.0728 z m -0.02946,-0.70848 h -0.342614 q -0.100769,0 -0.173633,0.0202 -0.07286,0.0202 -0.119373,0.0574 -0.04651,0.0372 -0.06976,0.0899 -0.0217,0.0512 -0.0217,0.11627 0,0.045 0.01395,0.0868 0.01395,0.0403 0.04496,0.0729 0.03101,0.031 0.08062,0.0496 0.04961,0.0186 0.120923,0.0186 0.09302,0 0.21239,-0.0558 0.120923,-0.0574 0.254248,-0.17984 z"
             style="fill:#008000"
             id="path1042" />
          <path
             d="m 55.020263,113.40198 q -0.09147,0.0233 -0.189136,0.0326 -0.09767,0.0109 -0.198437,0.0109 -0.293006,0 -0.437183,-0.13178 -0.144177,-0.13332 -0.144177,-0.40772 v -0.81236 h -0.435632 v -0.22634 h 0.435632 v -0.42788 l 0.269751,-0.0698 v 0.49765 h 0.699182 v 0.22634 h -0.699182 v 0.79065 q 0,0.16743 0.08837,0.25115 0.08992,0.0822 0.263549,0.0822 0.07441,0 0.162781,-0.0109 0.08837,-0.0124 0.184485,-0.0372 z"
             style="fill:#008000"
             id="path1044" />
          <path
             d="m 56.041906,112.09043 h -0.460437 v -0.22324 h 0.733289 v 1.3317 h 0.463537 v 0.22479 h -1.247986 v -0.22479 h 0.511597 z m 0.09457,-0.87591 q 0.04496,0 0.08372,0.0171 0.03876,0.0155 0.06666,0.045 0.02946,0.0295 0.04496,0.0682 0.01705,0.0372 0.01705,0.0822 0,0.0434 -0.01705,0.0822 -0.0155,0.0388 -0.04496,0.0682 -0.02791,0.0295 -0.06666,0.0465 -0.03876,0.0155 -0.08372,0.0155 -0.04496,0 -0.08372,-0.0155 -0.03876,-0.017 -0.06821,-0.0465 -0.0279,-0.0294 -0.04496,-0.0682 -0.0155,-0.0388 -0.0155,-0.0822 0,-0.045 0.0155,-0.0822 0.01705,-0.0388 0.04496,-0.0682 0.02946,-0.0295 0.06821,-0.045 0.03876,-0.0171 0.08372,-0.0171 z"
             style="fill:#008000"
             id="path1046" />
          <path
             d="m 58.466564,113.36632 q -0.10542,0.0403 -0.217041,0.0589 -0.110071,0.0202 -0.227893,0.0202 -0.36897,0 -0.568957,-0.19999 -0.198438,-0.19999 -0.198438,-0.58446 0,-0.18449 0.05736,-0.33486 0.05736,-0.15038 0.16123,-0.25735 0.10387,-0.10697 0.248047,-0.16433 0.144177,-0.0589 0.31781,-0.0589 0.120923,0 0.226343,0.0171 0.10542,0.017 0.201538,0.0558 v 0.25735 q -0.100769,-0.0527 -0.206189,-0.076 -0.103869,-0.0248 -0.215491,-0.0248 -0.103869,0 -0.196887,0.0403 -0.09147,0.0387 -0.16123,0.11317 -0.06976,0.0744 -0.110071,0.18138 -0.04031,0.10697 -0.04031,0.24185 0,0.28215 0.136426,0.42323 0.137976,0.13952 0.381372,0.13952 0.110071,0 0.21239,-0.0248 0.10387,-0.0248 0.199988,-0.0744 z"
             style="fill:#008000"
             id="path1048" />
        </g>
        <g
           id="g1687"
           transform="translate(4.9407402,21.621434)">
          <rect
             style="fill:none;stroke:#000000;stroke-width:0.02;stroke-miterlimit:4;stroke-dasharray:none;stroke-dashoffset:0"
             id="use1614"
             width="1.7016108"
             height="4.9862733"
             x="36.541023"
             y="137.86183"
             inkscape:tile-x0="-11.816781"
             inkscape:tile-y0="38.543566"
             inkscape:tile-cx="-10.955975"
             inkscape:tile-cy="41.046703"
             inkscape:tile-w="1.7216108"
             inkscape:tile-h="5.0062733" />
          <use
             x="0"
             y="0"
             inkscape:tiled-clone-of="#use1614"
             xlink:href="#use1614"
             transform="translate(1.7216108)"
             id="use1668"
             width="100%"
             height="100%" />
          <use
             x="0"
             y="0"
             inkscape:tiled-clone-of="#use1614"
             xlink:href="#use1614"
             transform="translate(3.4432216)"
             id="use1670"
             width="100%"
             height="100%" />
          <use
             x="0"
             y="0"
             inkscape:tiled-clone-of="#use1614"
             xlink:href="#use1614"
             transform="translate(5.1648325)"
             id="use1672"
             width="100%"
             height="100%" />
          <use
             x="0"
             y="0"
             inkscape:tiled-clone-of="#use1614"
             xlink:href="#use1614"
             transform="translate(6.8864433)"
             id="use1674"
             width="100%"
             height="100%" />
          <use
             x="0"
             y="0"
             inkscape:tiled-clone-of="#use1614"
             xlink:href="#use1614"
             transform="translate(8.6080541)"
             id="use1676"
             width="100%"
             height="100%" />
          <use
             x="0"
             y="0"
             inkscape:tiled-clone-of="#use1614"
             xlink:href="#use1614"
             transform="translate(10.329665)"
             id="use1678"
             width="100%"
             height="100%" />
        </g>
      </g>
    </g>
  </g>
</svg>
